# Blender 4.4.1
# www.blender.org
mtllib sphere.mtl
o 球
v -0.555570 0.831470 -0.000000
v -0.831470 0.555570 -0.000000
v -0.980785 0.195090 -0.000000
v -1.000000 0.000000 0.000000
v -0.980785 -0.195090 0.000000
v -0.831470 -0.555570 0.000000
v -0.191342 0.980785 -0.038060
v -0.375330 0.923880 -0.074658
v -0.544895 0.831470 -0.108386
v -0.693520 0.707107 -0.137950
v -0.815493 0.555570 -0.162212
v -0.906127 0.382683 -0.180240
v -0.961940 0.195090 -0.191342
v -0.980785 -0.000000 -0.195090
v -0.961940 -0.195090 -0.191342
v -0.906127 -0.382683 -0.180240
v -0.815493 -0.555570 -0.162212
v -0.693520 -0.707107 -0.137950
v -0.544895 -0.831470 -0.108386
v -0.375330 -0.923880 -0.074658
v -0.191342 -0.980785 -0.038060
v -0.180240 0.980785 -0.074658
v -0.353553 0.923880 -0.146447
v -0.513280 0.831470 -0.212608
v -0.653281 0.707107 -0.270598
v -0.768178 0.555570 -0.318190
v -0.853553 0.382683 -0.353553
v -0.906127 0.195090 -0.375330
v -0.923879 -0.000000 -0.382683
v -0.906127 -0.195090 -0.375330
v -0.853553 -0.382683 -0.353553
v -0.768178 -0.555570 -0.318190
v -0.653281 -0.707107 -0.270598
v -0.513280 -0.831470 -0.212608
v -0.353553 -0.923880 -0.146447
v -0.180240 -0.980785 -0.074658
v -0.162212 0.980785 -0.108386
v -0.318190 0.923880 -0.212608
v -0.461940 0.831470 -0.308658
v -0.587938 0.707107 -0.392847
v -0.691342 0.555570 -0.461940
v -0.768178 0.382683 -0.513280
v -0.815493 0.195090 -0.544895
v -0.831469 -0.000000 -0.555570
v -0.815493 -0.195090 -0.544895
v -0.768178 -0.382683 -0.513280
v -0.691342 -0.555570 -0.461940
v -0.587938 -0.707107 -0.392847
v -0.461940 -0.831470 -0.308658
v -0.318190 -0.923880 -0.212608
v -0.162212 -0.980785 -0.108386
v -0.137950 0.980785 -0.137950
v -0.270598 0.923880 -0.270598
v -0.392847 0.831470 -0.392847
v -0.500000 0.707107 -0.500000
v -0.587938 0.555570 -0.587938
v -0.653281 0.382683 -0.653281
v -0.693520 0.195090 -0.693520
v -0.707107 -0.000000 -0.707107
v -0.693520 -0.195090 -0.693520
v -0.653281 -0.382683 -0.653281
v -0.587938 -0.555570 -0.587938
v -0.500000 -0.707107 -0.500000
v -0.392847 -0.831470 -0.392847
v -0.270598 -0.923880 -0.270598
v -0.137950 -0.980785 -0.137950
v -0.108386 0.980785 -0.162212
v -0.212608 0.923880 -0.318190
v -0.308658 0.831470 -0.461940
v -0.392848 0.707107 -0.587938
v -0.461940 0.555570 -0.691342
v -0.513280 0.382683 -0.768178
v -0.544895 0.195090 -0.815493
v -0.555570 -0.000000 -0.831470
v -0.544895 -0.195090 -0.815493
v -0.513280 -0.382683 -0.768178
v -0.461940 -0.555570 -0.691342
v -0.392848 -0.707107 -0.587938
v -0.308658 -0.831470 -0.461940
v -0.212608 -0.923880 -0.318190
v -0.108386 -0.980785 -0.162212
v 0.000000 1.000000 -0.000000
v -0.074658 0.980785 -0.180240
v -0.146447 0.923880 -0.353553
v -0.212607 0.831470 -0.513280
v -0.270598 0.707107 -0.653281
v -0.318190 0.555570 -0.768178
v -0.353553 0.382683 -0.853553
v -0.375330 0.195090 -0.906127
v -0.382683 -0.000000 -0.923879
v -0.375330 -0.195090 -0.906127
v -0.353553 -0.382683 -0.853553
v -0.318190 -0.555570 -0.768178
v -0.270598 -0.707107 -0.653281
v -0.212607 -0.831470 -0.513280
v -0.146447 -0.923880 -0.353553
v -0.074658 -0.980785 -0.180240
v -0.038060 0.980785 -0.191342
v -0.074658 0.923880 -0.375330
v -0.108386 0.831470 -0.544895
v -0.137950 0.707107 -0.693520
v -0.162212 0.555570 -0.815493
v -0.180240 0.382683 -0.906127
v -0.191342 0.195090 -0.961940
v -0.195090 -0.000000 -0.980785
v -0.191342 -0.195090 -0.961940
v -0.180240 -0.382683 -0.906127
v -0.162212 -0.555570 -0.815493
v -0.137950 -0.707107 -0.693520
v -0.108386 -0.831470 -0.544895
v -0.074658 -0.923880 -0.375330
v -0.038060 -0.980785 -0.191342
v 0.000000 0.980785 -0.195090
v 0.000000 0.923880 -0.382683
v 0.000000 0.831470 -0.555570
v 0.000000 0.707107 -0.707107
v 0.000000 0.555570 -0.831469
v 0.000000 0.382683 -0.923879
v 0.000000 0.195090 -0.980785
v 0.000000 -0.000000 -1.000000
v 0.000000 -0.195090 -0.980785
v 0.000000 -0.382683 -0.923879
v 0.000000 -0.555570 -0.831469
v 0.000000 -0.707107 -0.707107
v 0.000000 -0.831470 -0.555570
v 0.000000 -0.923880 -0.382683
v 0.000000 -0.980785 -0.195090
v 0.038060 0.980785 -0.191342
v 0.074658 0.923880 -0.375330
v 0.108386 0.831470 -0.544895
v 0.137950 0.707107 -0.693520
v 0.162212 0.555570 -0.815493
v 0.180240 0.382683 -0.906127
v 0.191342 0.195090 -0.961940
v 0.195090 -0.000000 -0.980785
v 0.191342 -0.195090 -0.961940
v 0.180240 -0.382683 -0.906127
v 0.162212 -0.555570 -0.815493
v 0.137950 -0.707107 -0.693520
v 0.108386 -0.831470 -0.544895
v 0.074658 -0.923880 -0.375330
v 0.038060 -0.980785 -0.191342
v 0.074658 0.980785 -0.180240
v 0.146447 0.923880 -0.353553
v 0.212608 0.831470 -0.513280
v 0.270598 0.707107 -0.653281
v 0.318190 0.555570 -0.768178
v 0.353553 0.382683 -0.853553
v 0.375330 0.195090 -0.906127
v 0.382683 -0.000000 -0.923879
v 0.375330 -0.195090 -0.906127
v 0.353553 -0.382683 -0.853553
v 0.318190 -0.555570 -0.768178
v 0.270598 -0.707107 -0.653281
v 0.212608 -0.831470 -0.513280
v 0.146447 -0.923880 -0.353553
v 0.074658 -0.980785 -0.180240
v 0.108386 0.980785 -0.162212
v 0.212608 0.923880 -0.318190
v 0.308658 0.831470 -0.461940
v 0.392847 0.707107 -0.587938
v 0.461940 0.555570 -0.691341
v 0.513280 0.382683 -0.768178
v 0.544895 0.195090 -0.815493
v 0.555570 -0.000000 -0.831469
v 0.544895 -0.195090 -0.815493
v 0.513280 -0.382683 -0.768178
v 0.461940 -0.555570 -0.691341
v 0.392847 -0.707107 -0.587938
v 0.308658 -0.831470 -0.461940
v 0.212608 -0.923880 -0.318190
v 0.108386 -0.980785 -0.162212
v 0.137950 0.980785 -0.137950
v 0.270598 0.923880 -0.270598
v 0.392847 0.831470 -0.392847
v 0.500000 0.707107 -0.500000
v 0.587938 0.555570 -0.587938
v 0.653281 0.382683 -0.653281
v 0.693520 0.195090 -0.693520
v 0.707107 -0.000000 -0.707106
v 0.693520 -0.195090 -0.693520
v 0.653281 -0.382683 -0.653281
v 0.587938 -0.555570 -0.587938
v 0.500000 -0.707107 -0.500000
v 0.392847 -0.831470 -0.392847
v 0.270598 -0.923880 -0.270598
v 0.137950 -0.980785 -0.137950
v 0.162212 0.980785 -0.108386
v 0.318190 0.923880 -0.212607
v 0.461940 0.831470 -0.308658
v 0.587938 0.707107 -0.392847
v 0.691342 0.555570 -0.461940
v 0.768178 0.382683 -0.513280
v 0.815493 0.195090 -0.544895
v 0.831469 -0.000000 -0.555570
v 0.815493 -0.195090 -0.544895
v 0.768178 -0.382683 -0.513280
v 0.691342 -0.555570 -0.461940
v 0.587938 -0.707107 -0.392847
v 0.461940 -0.831470 -0.308658
v 0.318190 -0.923880 -0.212607
v 0.162212 -0.980785 -0.108386
v 0.180240 0.980785 -0.074658
v 0.353553 0.923880 -0.146447
v 0.513280 0.831470 -0.212607
v 0.653281 0.707107 -0.270598
v 0.768178 0.555570 -0.318189
v 0.853553 0.382683 -0.353553
v 0.906127 0.195090 -0.375330
v 0.923879 -0.000000 -0.382683
v 0.906127 -0.195090 -0.375330
v 0.853553 -0.382683 -0.353553
v 0.768178 -0.555570 -0.318189
v 0.653281 -0.707107 -0.270598
v 0.513280 -0.831470 -0.212607
v 0.353553 -0.923880 -0.146447
v 0.180240 -0.980785 -0.074658
v 0.191342 0.980785 -0.038060
v 0.375330 0.923880 -0.074658
v 0.544895 0.831470 -0.108386
v 0.693520 0.707107 -0.137950
v 0.815493 0.555570 -0.162212
v 0.906127 0.382683 -0.180240
v 0.961939 0.195090 -0.191342
v 0.980785 -0.000000 -0.195090
v 0.961939 -0.195090 -0.191342
v 0.906127 -0.382683 -0.180240
v 0.815493 -0.555570 -0.162212
v 0.693520 -0.707107 -0.137950
v 0.544895 -0.831470 -0.108386
v 0.375330 -0.923880 -0.074658
v 0.191342 -0.980785 -0.038060
v 0.195090 0.980785 -0.000000
v 0.382683 0.923880 -0.000000
v 0.555570 0.831470 -0.000000
v 0.707107 0.707107 -0.000000
v 0.831469 0.555570 -0.000000
v 0.923879 0.382683 -0.000000
v 0.980785 0.195090 -0.000000
v 0.999999 0.000000 0.000000
v 0.980785 -0.195090 0.000000
v 0.923879 -0.382683 0.000000
v 0.831469 -0.555570 0.000000
v 0.707107 -0.707107 0.000000
v 0.555570 -0.831470 0.000000
v 0.382683 -0.923880 0.000000
v 0.195090 -0.980785 0.000000
v 0.191342 0.980785 0.038060
v 0.375330 0.923880 0.074658
v 0.544895 0.831470 0.108386
v 0.693520 0.707107 0.137950
v 0.815493 0.555570 0.162212
v 0.906127 0.382683 0.180240
v 0.961939 0.195090 0.191342
v 0.980785 0.000000 0.195090
v 0.961939 -0.195090 0.191342
v 0.906127 -0.382683 0.180240
v 0.815493 -0.555570 0.162212
v 0.693520 -0.707107 0.137950
v 0.544895 -0.831470 0.108386
v 0.375330 -0.923880 0.074658
v 0.191342 -0.980785 0.038060
v 0.180240 0.980785 0.074658
v 0.353553 0.923880 0.146447
v 0.513280 0.831470 0.212607
v 0.653281 0.707107 0.270598
v 0.768177 0.555570 0.318190
v 0.853553 0.382683 0.353553
v 0.906127 0.195090 0.375330
v 0.923879 0.000000 0.382683
v 0.906127 -0.195090 0.375330
v 0.853553 -0.382683 0.353553
v 0.768177 -0.555570 0.318190
v 0.653281 -0.707107 0.270598
v 0.513280 -0.831470 0.212607
v 0.353553 -0.923880 0.146447
v 0.180240 -0.980785 0.074658
v 0.162212 0.980785 0.108386
v 0.318190 0.923880 0.212607
v 0.461939 0.831470 0.308658
v 0.587938 0.707107 0.392847
v 0.691341 0.555570 0.461940
v 0.768178 0.382683 0.513280
v 0.815493 0.195090 0.544895
v 0.831469 0.000000 0.555570
v 0.815493 -0.195090 0.544895
v 0.768178 -0.382683 0.513280
v 0.691341 -0.555570 0.461940
v 0.587938 -0.707107 0.392847
v 0.461939 -0.831470 0.308658
v 0.318190 -0.923880 0.212607
v 0.162212 -0.980785 0.108386
v 0.137950 0.980785 0.137950
v 0.270598 0.923880 0.270598
v 0.392847 0.831470 0.392847
v 0.500000 0.707107 0.500000
v 0.587937 0.555570 0.587938
v 0.653281 0.382683 0.653281
v 0.693520 0.195090 0.693520
v 0.707106 0.000000 0.707106
v 0.693520 -0.195090 0.693520
v 0.653281 -0.382683 0.653281
v 0.587937 -0.555570 0.587938
v 0.500000 -0.707107 0.500000
v 0.392847 -0.831470 0.392847
v 0.270598 -0.923880 0.270598
v 0.137950 -0.980785 0.137950
v 0.000000 -1.000000 0.000000
v 0.108386 0.980785 0.162212
v 0.212607 0.923880 0.318190
v 0.308658 0.831470 0.461940
v 0.392847 0.707107 0.587938
v 0.461939 0.555570 0.691341
v 0.513280 0.382683 0.768177
v 0.544895 0.195090 0.815493
v 0.555569 0.000000 0.831469
v 0.544895 -0.195090 0.815493
v 0.513280 -0.382683 0.768177
v 0.461939 -0.555570 0.691341
v 0.392847 -0.707107 0.587938
v 0.308658 -0.831470 0.461940
v 0.212607 -0.923880 0.318190
v 0.108386 -0.980785 0.162212
v 0.074658 0.980785 0.180240
v 0.146447 0.923880 0.353553
v 0.212607 0.831470 0.513280
v 0.270598 0.707107 0.653281
v 0.318189 0.555570 0.768177
v 0.353553 0.382683 0.853553
v 0.375330 0.195090 0.906127
v 0.382683 0.000000 0.923879
v 0.375330 -0.195090 0.906127
v 0.353553 -0.382683 0.853553
v 0.318189 -0.555570 0.768177
v 0.270598 -0.707107 0.653281
v 0.212607 -0.831470 0.513280
v 0.146447 -0.923880 0.353553
v 0.074658 -0.980785 0.180240
v 0.038060 0.980785 0.191342
v 0.074658 0.923880 0.375330
v 0.108386 0.831470 0.544895
v 0.137950 0.707107 0.693520
v 0.162211 0.555570 0.815493
v 0.180240 0.382683 0.906127
v 0.191341 0.195090 0.961939
v 0.195090 0.000000 0.980784
v 0.191341 -0.195090 0.961939
v 0.180240 -0.382683 0.906127
v 0.162211 -0.555570 0.815493
v 0.137950 -0.707107 0.693520
v 0.108386 -0.831470 0.544895
v 0.074658 -0.923880 0.375330
v 0.038060 -0.980785 0.191342
v 0.000000 0.980785 0.195090
v 0.000000 0.923880 0.382683
v 0.000000 0.831470 0.555570
v 0.000000 0.707107 0.707107
v 0.000000 0.555570 0.831469
v 0.000000 0.382683 0.923879
v 0.000000 0.195090 0.980785
v 0.000000 0.000000 0.999999
v 0.000000 -0.195090 0.980785
v 0.000000 -0.382683 0.923879
v 0.000000 -0.555570 0.831469
v 0.000000 -0.707107 0.707107
v 0.000000 -0.831470 0.555570
v 0.000000 -0.923880 0.382683
v 0.000000 -0.980785 0.195090
v -0.038060 0.980785 0.191342
v -0.074658 0.923880 0.375330
v -0.108386 0.831470 0.544895
v -0.137950 0.707107 0.693520
v -0.162212 0.555570 0.815493
v -0.180240 0.382683 0.906127
v -0.191342 0.195090 0.961939
v -0.195091 0.000000 0.980784
v -0.191342 -0.195090 0.961939
v -0.180240 -0.382683 0.906127
v -0.162212 -0.555570 0.815493
v -0.137950 -0.707107 0.693520
v -0.108386 -0.831470 0.544895
v -0.074658 -0.923880 0.375330
v -0.038060 -0.980785 0.191342
v -0.074658 0.980785 0.180240
v -0.146447 0.923880 0.353553
v -0.212607 0.831470 0.513279
v -0.270598 0.707107 0.653281
v -0.318190 0.555570 0.768177
v -0.353553 0.382683 0.853553
v -0.375330 0.195090 0.906127
v -0.382683 0.000000 0.923878
v -0.375330 -0.195090 0.906127
v -0.353553 -0.382683 0.853553
v -0.318190 -0.555570 0.768177
v -0.270598 -0.707107 0.653281
v -0.212607 -0.831470 0.513279
v -0.146447 -0.923880 0.353553
v -0.074658 -0.980785 0.180240
v -0.108386 0.980785 0.162212
v -0.212607 0.923880 0.318189
v -0.308658 0.831470 0.461939
v -0.392847 0.707107 0.587938
v -0.461940 0.555570 0.691341
v -0.513280 0.382683 0.768177
v -0.544895 0.195090 0.815493
v -0.555570 0.000000 0.831468
v -0.544895 -0.195090 0.815493
v -0.513280 -0.382683 0.768177
v -0.461940 -0.555570 0.691341
v -0.392847 -0.707107 0.587938
v -0.308658 -0.831470 0.461939
v -0.212607 -0.923880 0.318189
v -0.108386 -0.980785 0.162212
v -0.137950 0.980785 0.137950
v -0.270598 0.923880 0.270598
v -0.392847 0.831470 0.392847
v -0.500000 0.707107 0.500000
v -0.587938 0.555570 0.587937
v -0.653281 0.382683 0.653281
v -0.693520 0.195090 0.693519
v -0.707106 0.000000 0.707106
v -0.693520 -0.195090 0.693519
v -0.653281 -0.382683 0.653281
v -0.587938 -0.555570 0.587937
v -0.500000 -0.707107 0.500000
v -0.392847 -0.831470 0.392847
v -0.270598 -0.923880 0.270598
v -0.137950 -0.980785 0.137950
v -0.162212 0.980785 0.108386
v -0.318190 0.923880 0.212607
v -0.461939 0.831470 0.308658
v -0.587938 0.707107 0.392847
v -0.691341 0.555570 0.461939
v -0.768177 0.382683 0.513280
v -0.815493 0.195090 0.544895
v -0.831469 0.000000 0.555569
v -0.815493 -0.195090 0.544895
v -0.768177 -0.382683 0.513280
v -0.691341 -0.555570 0.461939
v -0.587938 -0.707107 0.392847
v -0.461939 -0.831470 0.308658
v -0.318190 -0.923880 0.212607
v -0.162212 -0.980785 0.108386
v -0.180240 0.980785 0.074658
v -0.353553 0.923880 0.146446
v -0.513279 0.831470 0.212607
v -0.653281 0.707107 0.270598
v -0.768177 0.555570 0.318189
v -0.853553 0.382683 0.353553
v -0.906127 0.195090 0.375330
v -0.923879 0.000000 0.382683
v -0.906127 -0.195090 0.375330
v -0.853553 -0.382683 0.353553
v -0.768177 -0.555570 0.318189
v -0.653281 -0.707107 0.270598
v -0.513279 -0.831470 0.212607
v -0.353553 -0.923880 0.146446
v -0.180240 -0.980785 0.074658
v -0.191342 0.980785 0.038060
v -0.375330 0.923880 0.074658
v -0.544895 0.831470 0.108386
v -0.693520 0.707107 0.137950
v -0.815493 0.555570 0.162211
v -0.906127 0.382683 0.180240
v -0.961939 0.195090 0.191341
v -0.980784 0.000000 0.195090
v -0.961939 -0.195090 0.191341
v -0.906127 -0.382683 0.180240
v -0.815493 -0.555570 0.162211
v -0.693520 -0.707107 0.137950
v -0.544895 -0.831470 0.108386
v -0.375330 -0.923880 0.074658
v -0.191342 -0.980785 0.038060
v -0.195090 0.980785 -0.000000
v -0.382683 0.923880 -0.000000
v -0.707107 0.707107 -0.000000
v -0.923879 0.382683 -0.000000
v -0.923879 -0.382683 0.000000
v -0.707107 -0.707107 0.000000
v -0.555570 -0.831470 0.000000
v -0.382683 -0.923880 0.000000
v -0.195090 -0.980785 0.000000
vn -0.5598 0.8286 -0.0000
vn -0.3804 0.9217 -0.0757
vn -0.5490 0.8286 -0.1092
vn -0.9248 -0.3805 -0.0000
vn -0.8173 -0.5528 -0.1626
vn -0.8333 -0.5528 -0.0000
vn -0.7101 0.7041 -0.0000
vn -0.6965 0.7041 -0.1385
vn -0.6965 -0.7041 -0.1385
vn -0.7101 -0.7041 -0.0000
vn -0.8333 0.5528 -0.0000
vn -0.8173 0.5528 -0.1626
vn -0.5490 -0.8286 -0.1092
vn -0.5598 -0.8286 -0.0000
vn -0.9248 0.3805 -0.0000
vn -0.9070 0.3805 -0.1804
vn -0.3804 -0.9217 -0.0757
vn -0.3879 -0.9217 -0.0000
vn -0.9810 0.1939 -0.0000
vn -0.9622 0.1939 -0.1914
vn -0.1971 -0.9796 -0.0392
vn -0.2010 -0.9796 -0.0000
vn -0.9808 -0.0000 -0.1951
vn -1.0000 -0.0000 -0.0000
vn -0.2010 0.9796 -0.0000
vn -0.0000 1.0000 -0.0000
vn -0.1971 0.9796 -0.0392
vn -0.0000 -1.0000 -0.0000
vn -0.9622 -0.1939 -0.1914
vn -0.9810 -0.1939 -0.0000
vn -0.3879 0.9217 -0.0000
vn -0.9070 -0.3805 -0.1804
vn -0.3584 0.9217 -0.1484
vn -0.8544 -0.3805 -0.3539
vn -0.5172 0.8286 -0.2142
vn -0.7699 -0.5528 -0.3189
vn -0.6561 0.7041 -0.2718
vn -0.6561 -0.7041 -0.2718
vn -0.7699 0.5528 -0.3189
vn -0.5172 -0.8286 -0.2142
vn -0.8544 0.3805 -0.3539
vn -0.3584 -0.9217 -0.1484
vn -0.9063 0.1939 -0.3754
vn -0.1857 -0.9796 -0.0769
vn -0.9239 -0.0000 -0.3827
vn -0.1857 0.9796 -0.0769
vn -0.9063 -0.1939 -0.3754
vn -0.7689 0.3805 -0.5138
vn -0.3225 -0.9217 -0.2155
vn -0.8157 0.1939 -0.5450
vn -0.1671 -0.9796 -0.1116
vn -0.8315 -0.0000 -0.5556
vn -0.1671 0.9796 -0.1116
vn -0.8157 -0.1939 -0.5450
vn -0.3225 0.9217 -0.2155
vn -0.7689 -0.3805 -0.5138
vn -0.4654 0.8286 -0.3110
vn -0.6929 -0.5528 -0.4630
vn -0.5905 0.7041 -0.3945
vn -0.5905 -0.7041 -0.3945
vn -0.6929 0.5528 -0.4630
vn -0.4654 -0.8286 -0.3110
vn -0.6539 -0.3805 -0.6539
vn -0.3958 0.8286 -0.3958
vn -0.5893 -0.5528 -0.5893
vn -0.5021 0.7041 -0.5021
vn -0.5021 -0.7041 -0.5021
vn -0.5893 0.5528 -0.5893
vn -0.3958 -0.8286 -0.3958
vn -0.6539 0.3805 -0.6539
vn -0.2743 -0.9217 -0.2743
vn -0.6937 0.1939 -0.6937
vn -0.1421 -0.9796 -0.1421
vn -0.7071 -0.0000 -0.7071
vn -0.1421 0.9796 -0.1421
vn -0.6937 -0.1939 -0.6937
vn -0.2743 0.9217 -0.2743
vn -0.3110 -0.8286 -0.4654
vn -0.2155 -0.9217 -0.3225
vn -0.5138 0.3805 -0.7689
vn -0.5450 0.1939 -0.8157
vn -0.1116 -0.9796 -0.1671
vn -0.5556 -0.0000 -0.8315
vn -0.1116 0.9796 -0.1671
vn -0.5450 -0.1939 -0.8157
vn -0.2155 0.9217 -0.3225
vn -0.5138 -0.3805 -0.7689
vn -0.3110 0.8286 -0.4654
vn -0.4630 -0.5528 -0.6929
vn -0.3945 0.7041 -0.5905
vn -0.3945 -0.7041 -0.5905
vn -0.4630 0.5528 -0.6929
vn -0.2142 0.8286 -0.5172
vn -0.3539 -0.3805 -0.8544
vn -0.3189 -0.5528 -0.7699
vn -0.2718 0.7041 -0.6561
vn -0.2718 -0.7041 -0.6561
vn -0.3189 0.5528 -0.7699
vn -0.2142 -0.8286 -0.5172
vn -0.3539 0.3805 -0.8544
vn -0.1484 -0.9217 -0.3584
vn -0.3754 0.1939 -0.9063
vn -0.0769 -0.9796 -0.1857
vn -0.3827 -0.0000 -0.9239
vn -0.0769 0.9796 -0.1857
vn -0.3754 -0.1939 -0.9063
vn -0.1484 0.9217 -0.3584
vn -0.1804 0.3805 -0.9070
vn -0.1914 0.1939 -0.9622
vn -0.0392 -0.9796 -0.1971
vn -0.1951 -0.0000 -0.9808
vn -0.0392 0.9796 -0.1971
vn -0.1914 -0.1939 -0.9622
vn -0.0757 0.9217 -0.3804
vn -0.1804 -0.3805 -0.9070
vn -0.1092 0.8286 -0.5490
vn -0.1626 -0.5528 -0.8173
vn -0.1385 0.7041 -0.6965
vn -0.1385 -0.7041 -0.6965
vn -0.1626 0.5528 -0.8173
vn -0.1092 -0.8286 -0.5490
vn -0.0757 -0.9217 -0.3804
vn -0.0000 -0.3805 -0.9248
vn -0.0000 -0.5528 -0.8333
vn -0.0000 0.7041 -0.7101
vn -0.0000 -0.7041 -0.7101
vn -0.0000 0.5528 -0.8333
vn -0.0000 -0.8286 -0.5598
vn -0.0000 0.3805 -0.9248
vn -0.0000 -0.9217 -0.3879
vn -0.0000 0.1939 -0.9810
vn -0.0000 -0.9796 -0.2010
vn -0.0000 -0.0000 -1.0000
vn -0.0000 0.9796 -0.2010
vn -0.0000 -0.1939 -0.9810
vn -0.0000 0.9217 -0.3879
vn -0.0000 0.8286 -0.5598
vn 0.0392 -0.9796 -0.1971
vn 0.1914 0.1939 -0.9622
vn 0.1951 -0.0000 -0.9808
vn 0.0392 0.9796 -0.1971
vn 0.1914 -0.1939 -0.9622
vn 0.0757 0.9217 -0.3804
vn 0.1804 -0.3805 -0.9070
vn 0.1092 0.8286 -0.5490
vn 0.1626 -0.5528 -0.8173
vn 0.1385 0.7041 -0.6965
vn 0.1385 -0.7041 -0.6965
vn 0.1626 0.5528 -0.8173
vn 0.1092 -0.8286 -0.5490
vn 0.1804 0.3805 -0.9070
vn 0.0757 -0.9217 -0.3804
vn 0.2718 -0.7041 -0.6561
vn 0.2718 0.7041 -0.6561
vn 0.3189 0.5528 -0.7699
vn 0.2142 -0.8286 -0.5172
vn 0.3539 0.3805 -0.8544
vn 0.1484 -0.9217 -0.3584
vn 0.3754 0.1939 -0.9063
vn 0.0769 -0.9796 -0.1857
vn 0.3827 -0.0000 -0.9239
vn 0.0769 0.9796 -0.1857
vn 0.3754 -0.1939 -0.9063
vn 0.1484 0.9217 -0.3584
vn 0.3539 -0.3805 -0.8544
vn 0.2142 0.8286 -0.5172
vn 0.3189 -0.5528 -0.7699
vn 0.1116 0.9796 -0.1671
vn 0.1116 -0.9796 -0.1671
vn 0.5450 -0.1939 -0.8157
vn 0.2155 0.9217 -0.3225
vn 0.5138 -0.3805 -0.7689
vn 0.3110 0.8286 -0.4654
vn 0.4630 -0.5528 -0.6929
vn 0.3945 0.7041 -0.5905
vn 0.3945 -0.7041 -0.5905
vn 0.4630 0.5528 -0.6929
vn 0.3110 -0.8286 -0.4654
vn 0.5138 0.3805 -0.7689
vn 0.2155 -0.9217 -0.3225
vn 0.5450 0.1939 -0.8157
vn 0.5556 -0.0000 -0.8315
vn 0.5021 0.7041 -0.5021
vn 0.5893 0.5528 -0.5893
vn 0.3958 -0.8286 -0.3958
vn 0.6539 0.3805 -0.6539
vn 0.2743 -0.9217 -0.2743
vn 0.6937 0.1939 -0.6937
vn 0.1421 -0.9796 -0.1421
vn 0.7071 -0.0000 -0.7071
vn 0.1421 0.9796 -0.1421
vn 0.6937 -0.1939 -0.6937
vn 0.2743 0.9217 -0.2743
vn 0.6539 -0.3805 -0.6539
vn 0.3958 0.8286 -0.3958
vn 0.5893 -0.5528 -0.5893
vn 0.5021 -0.7041 -0.5021
vn 0.8157 -0.1939 -0.5450
vn 0.1671 0.9796 -0.1116
vn 0.3225 0.9217 -0.2155
vn 0.7689 -0.3805 -0.5138
vn 0.4654 0.8286 -0.3110
vn 0.6929 -0.5528 -0.4630
vn 0.5905 0.7041 -0.3945
vn 0.5905 -0.7041 -0.3945
vn 0.6929 0.5528 -0.4630
vn 0.4654 -0.8286 -0.3110
vn 0.7689 0.3805 -0.5138
vn 0.3225 -0.9217 -0.2155
vn 0.8157 0.1939 -0.5450
vn 0.1671 -0.9796 -0.1116
vn 0.8315 -0.0000 -0.5556
vn 0.6561 -0.7041 -0.2718
vn 0.5172 -0.8286 -0.2142
vn 0.8544 0.3805 -0.3539
vn 0.3584 -0.9217 -0.1484
vn 0.9063 0.1939 -0.3754
vn 0.1857 -0.9796 -0.0769
vn 0.9239 -0.0000 -0.3827
vn 0.1857 0.9796 -0.0769
vn 0.9063 -0.1939 -0.3754
vn 0.3584 0.9217 -0.1484
vn 0.8544 -0.3805 -0.3539
vn 0.5172 0.8286 -0.2142
vn 0.7699 -0.5528 -0.3189
vn 0.6561 0.7041 -0.2718
vn 0.7699 0.5528 -0.3189
vn 0.3804 0.9217 -0.0757
vn 0.9070 -0.3805 -0.1804
vn 0.5490 0.8286 -0.1092
vn 0.8173 -0.5528 -0.1626
vn 0.6965 0.7041 -0.1385
vn 0.6965 -0.7041 -0.1385
vn 0.8173 0.5528 -0.1626
vn 0.5490 -0.8286 -0.1092
vn 0.9070 0.3805 -0.1804
vn 0.3804 -0.9217 -0.0757
vn 0.9622 0.1939 -0.1914
vn 0.1971 -0.9796 -0.0392
vn 0.9808 -0.0000 -0.1951
vn 0.1971 0.9796 -0.0392
vn 0.9622 -0.1939 -0.1914
vn 0.9248 0.3805 -0.0000
vn 0.3879 -0.9217 -0.0000
vn 0.9810 0.1939 -0.0000
vn 0.2010 -0.9796 -0.0000
vn 1.0000 -0.0000 -0.0000
vn 0.2010 0.9796 -0.0000
vn 0.9810 -0.1939 -0.0000
vn 0.3879 0.9217 -0.0000
vn 0.9248 -0.3805 -0.0000
vn 0.5598 0.8286 -0.0000
vn 0.8333 -0.5528 -0.0000
vn 0.7101 0.7041 -0.0000
vn 0.7101 -0.7041 -0.0000
vn 0.8333 0.5528 -0.0000
vn 0.5598 -0.8286 -0.0000
vn 0.9070 -0.3805 0.1804
vn 0.5490 0.8286 0.1092
vn 0.8173 -0.5528 0.1626
vn 0.6965 0.7041 0.1385
vn 0.6965 -0.7041 0.1385
vn 0.8173 0.5528 0.1626
vn 0.5490 -0.8286 0.1092
vn 0.9070 0.3805 0.1804
vn 0.3804 -0.9217 0.0757
vn 0.9622 0.1939 0.1914
vn 0.1971 -0.9796 0.0392
vn 0.9808 -0.0000 0.1951
vn 0.1971 0.9796 0.0392
vn 0.9622 -0.1939 0.1914
vn 0.3804 0.9217 0.0757
vn 0.3584 -0.9217 0.1484
vn 0.8544 0.3805 0.3539
vn 0.9063 0.1939 0.3754
vn 0.1857 -0.9796 0.0769
vn 0.9239 -0.0000 0.3827
vn 0.1857 0.9796 0.0769
vn 0.9063 -0.1939 0.3754
vn 0.3584 0.9217 0.1484
vn 0.8544 -0.3805 0.3539
vn 0.5172 0.8286 0.2142
vn 0.7699 -0.5528 0.3189
vn 0.6561 0.7041 0.2718
vn 0.6561 -0.7041 0.2718
vn 0.7699 0.5528 0.3189
vn 0.5172 -0.8286 0.2142
vn 0.7689 -0.3805 0.5138
vn 0.6929 -0.5528 0.4630
vn 0.5905 0.7041 0.3945
vn 0.5905 -0.7041 0.3945
vn 0.6929 0.5528 0.4630
vn 0.4654 -0.8286 0.3110
vn 0.7689 0.3805 0.5138
vn 0.3225 -0.9217 0.2155
vn 0.8157 0.1939 0.5450
vn 0.1671 -0.9796 0.1116
vn 0.8315 -0.0000 0.5556
vn 0.1671 0.9796 0.1116
vn 0.8157 -0.1939 0.5450
vn 0.3225 0.9217 0.2155
vn 0.4654 0.8286 0.3110
vn 0.2743 -0.9217 0.2743
vn 0.1421 -0.9796 0.1421
vn 0.6937 0.1939 0.6937
vn 0.7071 -0.0000 0.7071
vn 0.1421 0.9796 0.1421
vn 0.6937 -0.1939 0.6937
vn 0.2743 0.9217 0.2743
vn 0.6539 -0.3805 0.6539
vn 0.3958 0.8286 0.3958
vn 0.5893 -0.5528 0.5893
vn 0.5021 0.7041 0.5021
vn 0.5021 -0.7041 0.5021
vn 0.5893 0.5528 0.5893
vn 0.3958 -0.8286 0.3958
vn 0.6539 0.3805 0.6539
vn 0.3945 0.7041 0.5905
vn 0.3945 -0.7041 0.5905
vn 0.4630 0.5528 0.6929
vn 0.3110 -0.8286 0.4654
vn 0.5138 0.3805 0.7689
vn 0.2155 -0.9217 0.3225
vn 0.5450 0.1939 0.8157
vn 0.1116 -0.9796 0.1671
vn 0.5556 -0.0000 0.8315
vn 0.1116 0.9796 0.1671
vn 0.5450 -0.1939 0.8157
vn 0.2155 0.9217 0.3225
vn 0.5138 -0.3805 0.7689
vn 0.3110 0.8286 0.4654
vn 0.4630 -0.5528 0.6929
vn 0.3754 0.1939 0.9063
vn 0.3827 -0.0000 0.9239
vn 0.0769 0.9796 0.1857
vn 0.0769 -0.9796 0.1857
vn 0.3754 -0.1939 0.9063
vn 0.1484 0.9217 0.3584
vn 0.3539 -0.3805 0.8544
vn 0.2142 0.8286 0.5172
vn 0.3189 -0.5528 0.7699
vn 0.2718 0.7041 0.6561
vn 0.2718 -0.7041 0.6561
vn 0.3189 0.5528 0.7699
vn 0.2142 -0.8286 0.5172
vn 0.3539 0.3805 0.8544
vn 0.1484 -0.9217 0.3584
vn 0.1385 -0.7041 0.6965
vn 0.1385 0.7041 0.6965
vn 0.1626 0.5528 0.8173
vn 0.1092 -0.8286 0.5490
vn 0.1804 0.3805 0.9070
vn 0.0757 -0.9217 0.3804
vn 0.1914 0.1939 0.9622
vn 0.0392 -0.9796 0.1971
vn 0.1951 -0.0000 0.9808
vn 0.0392 0.9796 0.1971
vn 0.1914 -0.1939 0.9622
vn 0.0757 0.9217 0.3804
vn 0.1804 -0.3805 0.9070
vn 0.1092 0.8286 0.5490
vn 0.1626 -0.5528 0.8173
vn -0.0000 0.9796 0.2010
vn -0.0000 -0.9796 0.2010
vn -0.0000 -0.1939 0.9810
vn -0.0000 0.9217 0.3879
vn -0.0000 -0.3805 0.9248
vn -0.0000 0.8286 0.5598
vn -0.0000 -0.5528 0.8333
vn -0.0000 0.7041 0.7101
vn -0.0000 -0.7041 0.7101
vn -0.0000 0.5528 0.8333
vn -0.0000 -0.8286 0.5598
vn -0.0000 0.3805 0.9248
vn -0.0000 -0.9217 0.3879
vn -0.0000 0.1939 0.9810
vn -0.0000 -0.0000 1.0000
vn -0.1385 0.7041 0.6965
vn -0.1626 0.5528 0.8173
vn -0.1385 -0.7041 0.6965
vn -0.1092 -0.8286 0.5490
vn -0.1804 0.3805 0.9070
vn -0.0757 -0.9217 0.3804
vn -0.1914 0.1939 0.9622
vn -0.0392 -0.9796 0.1971
vn -0.1951 -0.0000 0.9808
vn -0.0392 0.9796 0.1971
vn -0.1914 -0.1939 0.9622
vn -0.0757 0.9217 0.3804
vn -0.1804 -0.3805 0.9070
vn -0.1092 0.8286 0.5490
vn -0.1626 -0.5528 0.8173
vn -0.3754 -0.1939 0.9063
vn -0.1484 0.9217 0.3584
vn -0.3539 -0.3805 0.8544
vn -0.2142 0.8286 0.5172
vn -0.3189 -0.5528 0.7699
vn -0.2718 0.7041 0.6561
vn -0.2718 -0.7041 0.6561
vn -0.3189 0.5528 0.7699
vn -0.2142 -0.8286 0.5172
vn -0.3539 0.3805 0.8544
vn -0.1484 -0.9217 0.3584
vn -0.3754 0.1939 0.9063
vn -0.0769 -0.9796 0.1857
vn -0.3827 -0.0000 0.9239
vn -0.0769 0.9796 0.1857
vn -0.3945 -0.7041 0.5905
vn -0.3110 -0.8286 0.4654
vn -0.5138 0.3805 0.7689
vn -0.2155 -0.9217 0.3225
vn -0.5450 0.1939 0.8157
vn -0.1116 -0.9796 0.1671
vn -0.5556 -0.0000 0.8315
vn -0.1116 0.9796 0.1671
vn -0.5450 -0.1939 0.8157
vn -0.2155 0.9217 0.3225
vn -0.5138 -0.3805 0.7689
vn -0.3110 0.8286 0.4654
vn -0.4630 -0.5528 0.6929
vn -0.3945 0.7041 0.5905
vn -0.4630 0.5528 0.6929
vn -0.6539 -0.3805 0.6539
vn -0.2743 0.9217 0.2743
vn -0.3958 0.8286 0.3958
vn -0.5893 -0.5528 0.5893
vn -0.5021 0.7041 0.5021
vn -0.5021 -0.7041 0.5021
vn -0.5893 0.5528 0.5893
vn -0.3958 -0.8286 0.3958
vn -0.6539 0.3805 0.6539
vn -0.2743 -0.9217 0.2743
vn -0.6937 0.1939 0.6937
vn -0.1421 -0.9796 0.1421
vn -0.7071 -0.0000 0.7071
vn -0.1421 0.9796 0.1421
vn -0.6937 -0.1939 0.6937
vn -0.3225 -0.9217 0.2155
vn -0.7689 0.3805 0.5138
vn -0.8157 0.1939 0.5450
vn -0.1671 -0.9796 0.1116
vn -0.8315 -0.0000 0.5556
vn -0.1671 0.9796 0.1116
vn -0.8157 -0.1939 0.5450
vn -0.3225 0.9217 0.2155
vn -0.7689 -0.3805 0.5138
vn -0.4654 0.8286 0.3110
vn -0.6929 -0.5528 0.4630
vn -0.5905 0.7041 0.3945
vn -0.5905 -0.7041 0.3945
vn -0.6929 0.5528 0.4630
vn -0.4654 -0.8286 0.3110
vn -0.5172 0.8286 0.2142
vn -0.8544 -0.3805 0.3539
vn -0.7699 -0.5528 0.3189
vn -0.6561 0.7041 0.2718
vn -0.6561 -0.7041 0.2718
vn -0.7699 0.5528 0.3189
vn -0.5172 -0.8286 0.2142
vn -0.8544 0.3805 0.3539
vn -0.3584 -0.9217 0.1484
vn -0.9063 0.1939 0.3754
vn -0.1857 -0.9796 0.0769
vn -0.9239 -0.0000 0.3827
vn -0.1857 0.9796 0.0769
vn -0.9063 -0.1939 0.3754
vn -0.3584 0.9217 0.1484
vn -0.9070 0.3805 0.1804
vn -0.9622 0.1939 0.1914
vn -0.3804 -0.9217 0.0757
vn -0.1971 -0.9796 0.0392
vn -0.9808 -0.0000 0.1951
vn -0.1971 0.9796 0.0392
vn -0.9622 -0.1939 0.1914
vn -0.3804 0.9217 0.0757
vn -0.9070 -0.3805 0.1804
vn -0.5490 0.8286 0.1092
vn -0.8173 -0.5528 0.1626
vn -0.6965 0.7041 0.1385
vn -0.6965 -0.7041 0.1385
vn -0.8173 0.5528 0.1626
vn -0.5490 -0.8286 0.1092
vt 0.750000 0.812500
vt 0.718750 0.875000
vt 0.718750 0.812500
vt 0.750000 0.375000
vt 0.718750 0.312500
vt 0.750000 0.312500
vt 0.750000 0.750000
vt 0.718750 0.750000
vt 0.718750 0.250000
vt 0.750000 0.250000
vt 0.750000 0.687500
vt 0.718750 0.687500
vt 0.718750 0.187500
vt 0.750000 0.187500
vt 0.750000 0.625000
vt 0.718750 0.625000
vt 0.718750 0.125000
vt 0.750000 0.125000
vt 0.750000 0.562500
vt 0.718750 0.562500
vt 0.718750 0.062500
vt 0.750000 0.062500
vt 0.718750 0.500000
vt 0.750000 0.500000
vt 0.750000 0.937500
vt 0.734375 1.000000
vt 0.718750 0.937500
vt 0.734375 0.000000
vt 0.718750 0.437500
vt 0.750000 0.437500
vt 0.750000 0.875000
vt 0.718750 0.375000
vt 0.687500 0.875000
vt 0.687500 0.375000
vt 0.687500 0.812500
vt 0.687500 0.312500
vt 0.687500 0.750000
vt 0.687500 0.250000
vt 0.687500 0.687500
vt 0.687500 0.187500
vt 0.687500 0.625000
vt 0.687500 0.125000
vt 0.687500 0.562500
vt 0.687500 0.062500
vt 0.687500 0.500000
vt 0.703125 1.000000
vt 0.687500 0.937500
vt 0.703125 0.000000
vt 0.687500 0.437500
vt 0.656250 0.625000
vt 0.656250 0.125000
vt 0.656250 0.562500
vt 0.656250 0.062500
vt 0.656250 0.500000
vt 0.671875 1.000000
vt 0.656250 0.937500
vt 0.671875 0.000000
vt 0.656250 0.437500
vt 0.656250 0.875000
vt 0.656250 0.375000
vt 0.656250 0.812500
vt 0.656250 0.312500
vt 0.656250 0.750000
vt 0.656250 0.250000
vt 0.656250 0.687500
vt 0.656250 0.187500
vt 0.625000 0.375000
vt 0.625000 0.812500
vt 0.625000 0.312500
vt 0.625000 0.750000
vt 0.625000 0.250000
vt 0.625000 0.687500
vt 0.625000 0.187500
vt 0.625000 0.625000
vt 0.625000 0.125000
vt 0.625000 0.562500
vt 0.625000 0.062500
vt 0.625000 0.500000
vt 0.640625 1.000000
vt 0.625000 0.937500
vt 0.640625 0.000000
vt 0.625000 0.437500
vt 0.625000 0.875000
vt 0.593750 0.187500
vt 0.593750 0.125000
vt 0.593750 0.625000
vt 0.593750 0.562500
vt 0.593750 0.062500
vt 0.593750 0.500000
vt 0.609375 1.000000
vt 0.593750 0.937500
vt 0.609375 0.000000
vt 0.593750 0.437500
vt 0.593750 0.875000
vt 0.593750 0.375000
vt 0.593750 0.812500
vt 0.593750 0.312500
vt 0.593750 0.750000
vt 0.593750 0.250000
vt 0.593750 0.687500
vt 0.562500 0.812500
vt 0.562500 0.375000
vt 0.562500 0.312500
vt 0.562500 0.750000
vt 0.562500 0.250000
vt 0.562500 0.687500
vt 0.562500 0.187500
vt 0.562500 0.625000
vt 0.562500 0.125000
vt 0.562500 0.562500
vt 0.562500 0.062500
vt 0.562500 0.500000
vt 0.578125 1.000000
vt 0.562500 0.937500
vt 0.578125 0.000000
vt 0.562500 0.437500
vt 0.562500 0.875000
vt 0.531250 0.625000
vt 0.531250 0.562500
vt 0.531250 0.062500
vt 0.531250 0.500000
vt 0.546875 1.000000
vt 0.531250 0.937500
vt 0.546875 0.000000
vt 0.531250 0.437500
vt 0.531250 0.875000
vt 0.531250 0.375000
vt 0.531250 0.812500
vt 0.531250 0.312500
vt 0.531250 0.750000
vt 0.531250 0.250000
vt 0.531250 0.687500
vt 0.531250 0.187500
vt 0.531250 0.125000
vt 0.500000 0.375000
vt 0.500000 0.312500
vt 0.500000 0.750000
vt 0.500000 0.250000
vt 0.500000 0.687500
vt 0.500000 0.187500
vt 0.500000 0.625000
vt 0.500000 0.125000
vt 0.500000 0.562500
vt 0.500000 0.062500
vt 0.500000 0.500000
vt 0.515625 1.000000
vt 0.500000 0.937500
vt 0.515625 0.000000
vt 0.500000 0.437500
vt 0.500000 0.875000
vt 0.500000 0.812500
vt 0.468750 0.062500
vt 0.468750 0.562500
vt 0.468750 0.500000
vt 0.484375 1.000000
vt 0.468750 0.937500
vt 0.484375 0.000000
vt 0.468750 0.437500
vt 0.468750 0.875000
vt 0.468750 0.375000
vt 0.468750 0.812500
vt 0.468750 0.312500
vt 0.468750 0.750000
vt 0.468750 0.250000
vt 0.468750 0.687500
vt 0.468750 0.187500
vt 0.468750 0.625000
vt 0.468750 0.125000
vt 0.437500 0.250000
vt 0.437500 0.750000
vt 0.437500 0.687500
vt 0.437500 0.187500
vt 0.437500 0.625000
vt 0.437500 0.125000
vt 0.437500 0.562500
vt 0.437500 0.062500
vt 0.437500 0.500000
vt 0.453125 1.000000
vt 0.437500 0.937500
vt 0.453125 0.000000
vt 0.437500 0.437500
vt 0.437500 0.875000
vt 0.437500 0.375000
vt 0.437500 0.812500
vt 0.437500 0.312500
vt 0.421875 1.000000
vt 0.406250 0.937500
vt 0.421875 0.000000
vt 0.406250 0.062500
vt 0.406250 0.437500
vt 0.406250 0.875000
vt 0.406250 0.375000
vt 0.406250 0.812500
vt 0.406250 0.312500
vt 0.406250 0.750000
vt 0.406250 0.250000
vt 0.406250 0.687500
vt 0.406250 0.187500
vt 0.406250 0.625000
vt 0.406250 0.125000
vt 0.406250 0.562500
vt 0.406250 0.500000
vt 0.375000 0.750000
vt 0.375000 0.687500
vt 0.375000 0.187500
vt 0.375000 0.625000
vt 0.375000 0.125000
vt 0.375000 0.562500
vt 0.375000 0.062500
vt 0.375000 0.500000
vt 0.390625 1.000000
vt 0.375000 0.937500
vt 0.390625 0.000000
vt 0.375000 0.437500
vt 0.375000 0.875000
vt 0.375000 0.375000
vt 0.375000 0.812500
vt 0.375000 0.312500
vt 0.375000 0.250000
vt 0.343750 0.437500
vt 0.343750 0.937500
vt 0.343750 0.875000
vt 0.343750 0.375000
vt 0.343750 0.812500
vt 0.343750 0.312500
vt 0.343750 0.750000
vt 0.343750 0.250000
vt 0.343750 0.687500
vt 0.343750 0.187500
vt 0.343750 0.625000
vt 0.343750 0.125000
vt 0.343750 0.562500
vt 0.343750 0.062500
vt 0.343750 0.500000
vt 0.359375 1.000000
vt 0.359375 0.000000
vt 0.312500 0.250000
vt 0.312500 0.187500
vt 0.312500 0.625000
vt 0.312500 0.125000
vt 0.312500 0.562500
vt 0.312500 0.062500
vt 0.312500 0.500000
vt 0.328125 1.000000
vt 0.312500 0.937500
vt 0.328125 0.000000
vt 0.312500 0.437500
vt 0.312500 0.875000
vt 0.312500 0.375000
vt 0.312500 0.812500
vt 0.312500 0.312500
vt 0.312500 0.750000
vt 0.312500 0.687500
vt 0.281250 0.875000
vt 0.281250 0.375000
vt 0.281250 0.812500
vt 0.281250 0.312500
vt 0.281250 0.750000
vt 0.281250 0.250000
vt 0.281250 0.687500
vt 0.281250 0.187500
vt 0.281250 0.625000
vt 0.281250 0.125000
vt 0.281250 0.562500
vt 0.281250 0.062500
vt 0.281250 0.500000
vt 0.296875 1.000000
vt 0.281250 0.937500
vt 0.296875 0.000000
vt 0.281250 0.437500
vt 0.250000 0.625000
vt 0.250000 0.125000
vt 0.250000 0.562500
vt 0.250000 0.062500
vt 0.250000 0.500000
vt 0.265625 1.000000
vt 0.250000 0.937500
vt 0.265625 0.000000
vt 0.250000 0.437500
vt 0.250000 0.875000
vt 0.250000 0.375000
vt 0.250000 0.812500
vt 0.250000 0.312500
vt 0.250000 0.750000
vt 0.250000 0.250000
vt 0.250000 0.687500
vt 0.250000 0.187500
vt 0.218750 0.375000
vt 0.218750 0.812500
vt 0.218750 0.312500
vt 0.218750 0.750000
vt 0.218750 0.250000
vt 0.218750 0.687500
vt 0.218750 0.187500
vt 0.218750 0.625000
vt 0.218750 0.125000
vt 0.218750 0.562500
vt 0.218750 0.062500
vt 0.218750 0.500000
vt 0.234375 1.000000
vt 0.218750 0.937500
vt 0.234375 0.000000
vt 0.218750 0.437500
vt 0.218750 0.875000
vt 0.187500 0.125000
vt 0.187500 0.625000
vt 0.187500 0.562500
vt 0.187500 0.062500
vt 0.187500 0.500000
vt 0.203125 1.000000
vt 0.187500 0.937500
vt 0.203125 0.000000
vt 0.187500 0.437500
vt 0.187500 0.875000
vt 0.187500 0.375000
vt 0.187500 0.812500
vt 0.187500 0.312500
vt 0.187500 0.750000
vt 0.187500 0.250000
vt 0.187500 0.687500
vt 0.187500 0.187500
vt 0.156250 0.375000
vt 0.156250 0.312500
vt 0.156250 0.750000
vt 0.156250 0.250000
vt 0.156250 0.687500
vt 0.156250 0.187500
vt 0.156250 0.625000
vt 0.156250 0.125000
vt 0.156250 0.562500
vt 0.156250 0.062500
vt 0.156250 0.500000
vt 0.171875 1.000000
vt 0.156250 0.937500
vt 0.171875 0.000000
vt 0.156250 0.437500
vt 0.156250 0.875000
vt 0.156250 0.812500
vt 0.125000 0.125000
vt 0.125000 0.062500
vt 0.125000 0.562500
vt 0.125000 0.500000
vt 0.140625 1.000000
vt 0.125000 0.937500
vt 0.140625 0.000000
vt 0.125000 0.437500
vt 0.125000 0.875000
vt 0.125000 0.375000
vt 0.125000 0.812500
vt 0.125000 0.312500
vt 0.125000 0.750000
vt 0.125000 0.250000
vt 0.125000 0.687500
vt 0.125000 0.187500
vt 0.125000 0.625000
vt 0.093750 0.750000
vt 0.093750 0.250000
vt 0.093750 0.687500
vt 0.093750 0.187500
vt 0.093750 0.625000
vt 0.093750 0.125000
vt 0.093750 0.562500
vt 0.093750 0.062500
vt 0.093750 0.500000
vt 0.109375 1.000000
vt 0.093750 0.937500
vt 0.109375 0.000000
vt 0.093750 0.437500
vt 0.093750 0.875000
vt 0.093750 0.375000
vt 0.093750 0.812500
vt 0.093750 0.312500
vt 0.062500 0.562500
vt 0.062500 0.500000
vt 0.078125 1.000000
vt 0.062500 0.937500
vt 0.078125 0.000000
vt 0.062500 0.062500
vt 0.062500 0.437500
vt 0.062500 0.875000
vt 0.062500 0.375000
vt 0.062500 0.812500
vt 0.062500 0.312500
vt 0.062500 0.750000
vt 0.062500 0.250000
vt 0.062500 0.687500
vt 0.062500 0.187500
vt 0.062500 0.625000
vt 0.062500 0.125000
vt 0.031250 0.250000
vt 0.031250 0.750000
vt 0.031250 0.687500
vt 0.031250 0.187500
vt 0.031250 0.625000
vt 0.031250 0.125000
vt 0.031250 0.562500
vt 0.031250 0.062500
vt 0.031250 0.500000
vt 0.046875 1.000000
vt 0.031250 0.937500
vt 0.046875 0.000000
vt 0.031250 0.437500
vt 0.031250 0.875000
vt 0.031250 0.375000
vt 0.031250 0.812500
vt 0.031250 0.312500
vt 0.015625 1.000000
vt 0.000000 0.937500
vt 0.015625 0.000000
vt 0.000000 0.062500
vt 0.000000 0.437500
vt 0.000000 0.875000
vt 0.000000 0.375000
vt 0.000000 0.812500
vt 0.000000 0.312500
vt 0.000000 0.750000
vt 0.000000 0.250000
vt 0.000000 0.687500
vt 0.000000 0.187500
vt 0.000000 0.625000
vt 0.000000 0.125000
vt 0.000000 0.562500
vt 0.000000 0.500000
vt 1.000000 0.687500
vt 0.968750 0.750000
vt 0.968750 0.687500
vt 1.000000 0.187500
vt 0.968750 0.250000
vt 0.968750 0.187500
vt 0.968750 0.625000
vt 1.000000 0.625000
vt 0.968750 0.125000
vt 1.000000 0.125000
vt 1.000000 0.562500
vt 0.968750 0.562500
vt 0.968750 0.062500
vt 1.000000 0.062500
vt 1.000000 0.500000
vt 0.968750 0.500000
vt 1.000000 0.937500
vt 0.984375 1.000000
vt 0.968750 0.937500
vt 0.984375 0.000000
vt 0.968750 0.437500
vt 1.000000 0.437500
vt 0.968750 0.875000
vt 1.000000 0.875000
vt 0.968750 0.375000
vt 1.000000 0.375000
vt 1.000000 0.812500
vt 0.968750 0.812500
vt 1.000000 0.312500
vt 0.968750 0.312500
vt 1.000000 0.750000
vt 1.000000 0.250000
vt 0.937500 0.437500
vt 0.937500 0.875000
vt 0.937500 0.375000
vt 0.937500 0.812500
vt 0.937500 0.312500
vt 0.937500 0.750000
vt 0.937500 0.250000
vt 0.937500 0.687500
vt 0.937500 0.187500
vt 0.937500 0.625000
vt 0.937500 0.125000
vt 0.937500 0.562500
vt 0.937500 0.062500
vt 0.937500 0.500000
vt 0.953125 1.000000
vt 0.937500 0.937500
vt 0.953125 0.000000
vt 0.906250 0.250000
vt 0.906250 0.187500
vt 0.906250 0.625000
vt 0.906250 0.125000
vt 0.906250 0.562500
vt 0.906250 0.062500
vt 0.906250 0.500000
vt 0.921875 1.000000
vt 0.906250 0.937500
vt 0.921875 0.000000
vt 0.906250 0.437500
vt 0.906250 0.875000
vt 0.906250 0.375000
vt 0.906250 0.812500
vt 0.906250 0.312500
vt 0.906250 0.750000
vt 0.906250 0.687500
vt 0.875000 0.375000
vt 0.875000 0.875000
vt 0.875000 0.812500
vt 0.875000 0.312500
vt 0.875000 0.750000
vt 0.875000 0.250000
vt 0.875000 0.687500
vt 0.875000 0.187500
vt 0.875000 0.625000
vt 0.875000 0.125000
vt 0.875000 0.562500
vt 0.875000 0.062500
vt 0.875000 0.500000
vt 0.890625 1.000000
vt 0.875000 0.937500
vt 0.890625 0.000000
vt 0.875000 0.437500
vt 0.843750 0.125000
vt 0.843750 0.625000
vt 0.843750 0.562500
vt 0.843750 0.062500
vt 0.843750 0.500000
vt 0.859375 1.000000
vt 0.843750 0.937500
vt 0.859375 0.000000
vt 0.843750 0.437500
vt 0.843750 0.875000
vt 0.843750 0.375000
vt 0.843750 0.812500
vt 0.843750 0.312500
vt 0.843750 0.750000
vt 0.843750 0.250000
vt 0.843750 0.687500
vt 0.843750 0.187500
vt 0.812500 0.812500
vt 0.812500 0.375000
vt 0.812500 0.312500
vt 0.812500 0.750000
vt 0.812500 0.250000
vt 0.812500 0.687500
vt 0.812500 0.187500
vt 0.812500 0.625000
vt 0.812500 0.125000
vt 0.812500 0.562500
vt 0.812500 0.062500
vt 0.812500 0.500000
vt 0.828125 1.000000
vt 0.812500 0.937500
vt 0.828125 0.000000
vt 0.812500 0.437500
vt 0.812500 0.875000
vt 0.781250 0.625000
vt 0.781250 0.562500
vt 0.781250 0.125000
vt 0.781250 0.062500
vt 0.781250 0.500000
vt 0.796875 1.000000
vt 0.781250 0.937500
vt 0.796875 0.000000
vt 0.781250 0.437500
vt 0.781250 0.875000
vt 0.781250 0.375000
vt 0.781250 0.812500
vt 0.781250 0.312500
vt 0.781250 0.750000
vt 0.781250 0.250000
vt 0.781250 0.687500
vt 0.781250 0.187500
vt 0.765625 1.000000
vt 0.765625 0.000000
s 1
usemtl マテリアル.001
f 1/1/1 8/2/2 9/3/3
f 478/4/4 17/5/5 6/6/6
f 476/7/7 9/3/3 10/8/8
f 6/6/6 18/9/9 479/10/10
f 2/11/11 10/8/8 11/12/12
f 479/10/10 19/13/13 480/14/14
f 477/15/15 11/12/12 12/16/16
f 480/14/14 20/17/17 481/18/18
f 3/19/19 12/16/16 13/20/20
f 481/18/18 21/21/21 482/22/22
f 3/19/19 14/23/23 4/24/24
f 474/25/25 82/26/26 7/27/27
f 308/28/28 482/22/22 21/21/21
f 4/24/24 15/29/29 5/30/30
f 475/31/31 7/27/27 8/2/2
f 5/30/30 16/32/32 478/4/4
f 7/27/27 23/33/33 8/2/2
f 15/29/29 31/34/34 16/32/32
f 8/2/2 24/35/35 9/3/3
f 16/32/32 32/36/36 17/5/5
f 9/3/3 25/37/37 10/8/8
f 17/5/5 33/38/38 18/9/9
f 10/8/8 26/39/39 11/12/12
f 19/13/13 33/38/38 34/40/40
f 11/12/12 27/41/41 12/16/16
f 20/17/17 34/40/40 35/42/42
f 13/20/20 27/41/41 28/43/43
f 20/17/17 36/44/44 21/21/21
f 13/20/20 29/45/45 14/23/23
f 7/27/27 82/46/26 22/47/46
f 308/48/28 21/21/21 36/44/44
f 14/23/23 30/49/47 15/29/29
f 26/39/39 42/50/48 27/41/41
f 34/40/40 50/51/49 35/42/42
f 27/41/41 43/52/50 28/43/43
f 35/42/42 51/53/51 36/44/44
f 28/43/43 44/54/52 29/45/45
f 22/47/46 82/55/26 37/56/53
f 308/57/28 36/44/44 51/53/51
f 30/49/47 44/54/52 45/58/54
f 22/47/46 38/59/55 23/33/33
f 30/49/47 46/60/56 31/34/34
f 23/33/33 39/61/57 24/35/35
f 32/36/36 46/60/56 47/62/58
f 24/35/35 40/63/59 25/37/37
f 33/38/38 47/62/58 48/64/60
f 25/37/37 41/65/61 26/39/39
f 34/40/40 48/64/60 49/66/62
f 45/58/54 61/67/63 46/60/56
f 38/59/55 54/68/64 39/61/57
f 47/62/58 61/67/63 62/69/65
f 39/61/57 55/70/66 40/63/59
f 47/62/58 63/71/67 48/64/60
f 40/63/59 56/72/68 41/65/61
f 48/64/60 64/73/69 49/66/62
f 41/65/61 57/74/70 42/50/48
f 49/66/62 65/75/71 50/51/49
f 43/52/50 57/74/70 58/76/72
f 50/51/49 66/77/73 51/53/51
f 44/54/52 58/76/72 59/78/74
f 37/56/53 82/79/26 52/80/75
f 308/81/28 51/53/51 66/77/73
f 44/54/52 60/82/76 45/58/54
f 37/56/53 53/83/77 38/59/55
f 65/75/71 79/84/78 80/85/79
f 58/76/72 72/86/80 73/87/81
f 65/75/71 81/88/82 66/77/73
f 59/78/74 73/87/81 74/89/83
f 52/80/75 82/90/26 67/91/84
f 308/92/28 66/77/73 81/88/82
f 59/78/74 75/93/85 60/82/76
f 52/80/75 68/94/86 53/83/77
f 60/82/76 76/95/87 61/67/63
f 53/83/77 69/96/88 54/68/64
f 62/69/65 76/95/87 77/97/89
f 54/68/64 70/98/90 55/70/66
f 62/69/65 78/99/91 63/71/67
f 56/72/68 70/98/90 71/100/92
f 63/71/67 79/84/78 64/73/69
f 56/72/68 72/86/80 57/74/70
f 68/94/86 85/101/93 69/96/88
f 77/97/89 92/102/94 93/103/95
f 69/96/88 86/104/96 70/98/90
f 77/97/89 94/105/97 78/99/91
f 71/100/92 86/104/96 87/106/98
f 78/99/91 95/107/99 79/84/78
f 71/100/92 88/108/100 72/86/80
f 79/84/78 96/109/101 80/85/79
f 73/87/81 88/108/100 89/110/102
f 81/88/82 96/109/101 97/111/103
f 74/89/83 89/110/102 90/112/104
f 67/91/84 82/113/26 83/114/105
f 308/115/28 81/88/82 97/111/103
f 74/89/83 91/116/106 75/93/85
f 67/91/84 84/117/107 68/94/86
f 75/93/85 92/102/94 76/95/87
f 89/110/102 103/118/108 104/119/109
f 96/109/101 112/120/110 97/111/103
f 90/112/104 104/119/109 105/121/111
f 83/114/105 82/122/26 98/123/112
f 308/124/28 97/111/103 112/120/110
f 90/112/104 106/125/113 91/116/106
f 84/117/107 98/123/112 99/126/114
f 91/116/106 107/127/115 92/102/94
f 84/117/107 100/128/116 85/101/93
f 93/103/95 107/127/115 108/129/117
f 85/101/93 101/130/118 86/104/96
f 93/103/95 109/131/119 94/105/97
f 87/106/98 101/130/118 102/132/120
f 95/107/99 109/131/119 110/133/121
f 87/106/98 103/118/108 88/108/100
f 96/109/101 110/133/121 111/134/122
f 108/129/117 122/135/123 123/136/124
f 100/128/116 116/137/125 101/130/118
f 108/129/117 124/138/126 109/131/119
f 102/132/120 116/137/125 117/139/127
f 110/133/121 124/138/126 125/140/128
f 102/132/120 118/141/129 103/118/108
f 110/133/121 126/142/130 111/134/122
f 104/119/109 118/141/129 119/143/131
f 111/134/122 127/144/132 112/120/110
f 105/121/111 119/143/131 120/145/133
f 98/123/112 82/146/26 113/147/134
f 308/148/28 112/120/110 127/144/132
f 105/121/111 121/149/135 106/125/113
f 99/126/114 113/147/134 114/150/136
f 106/125/113 122/135/123 107/127/115
f 99/126/114 115/151/137 100/128/116
f 126/142/130 142/152/138 127/144/132
f 120/145/133 134/153/139 135/154/140
f 113/147/134 82/155/26 128/156/141
f 308/157/28 127/144/132 142/152/138
f 120/145/133 136/158/142 121/149/135
f 113/147/134 129/159/143 114/150/136
f 121/149/135 137/160/144 122/135/123
f 114/150/136 130/161/145 115/151/137
f 123/136/124 137/160/144 138/162/146
f 115/151/137 131/163/147 116/137/125
f 123/136/124 139/164/148 124/138/126
f 117/139/127 131/163/147 132/165/149
f 125/140/128 139/164/148 140/166/150
f 117/139/127 133/167/151 118/141/129
f 125/140/128 141/168/152 126/142/130
f 119/143/131 133/167/151 134/153/139
f 138/162/146 154/169/153 139/164/148
f 132/165/149 146/170/154 147/171/155
f 140/166/150 154/169/153 155/172/156
f 132/165/149 148/173/157 133/167/151
f 140/166/150 156/174/158 141/168/152
f 134/153/139 148/173/157 149/175/159
f 142/152/138 156/174/158 157/176/160
f 135/154/140 149/175/159 150/177/161
f 128/156/141 82/178/26 143/179/162
f 308/180/28 142/152/138 157/176/160
f 135/154/140 151/181/163 136/158/142
f 128/156/141 144/182/164 129/159/143
f 136/158/142 152/183/165 137/160/144
f 130/161/145 144/182/164 145/184/166
f 138/162/146 152/183/165 153/185/167
f 130/161/145 146/170/154 131/163/147
f 143/179/162 82/186/26 158/187/168
f 308/188/28 157/176/160 172/189/169
f 150/177/161 166/190/170 151/181/163
f 143/179/162 159/191/171 144/182/164
f 151/181/163 167/192/172 152/183/165
f 145/184/166 159/191/171 160/193/173
f 153/185/167 167/192/172 168/194/174
f 145/184/166 161/195/175 146/170/154
f 153/185/167 169/196/176 154/169/153
f 147/171/155 161/195/175 162/197/177
f 155/172/156 169/196/176 170/198/178
f 147/171/155 163/199/179 148/173/157
f 155/172/156 171/200/180 156/174/158
f 149/175/159 163/199/179 164/201/181
f 156/174/158 172/189/169 157/176/160
f 150/177/161 164/201/181 165/202/182
f 162/197/177 176/203/183 177/204/184
f 169/196/176 185/205/185 170/198/178
f 162/197/177 178/206/186 163/199/179
f 171/200/180 185/205/185 186/207/187
f 164/201/181 178/206/186 179/208/188
f 172/189/169 186/207/187 187/209/189
f 165/202/182 179/208/188 180/210/190
f 158/187/168 82/211/26 173/212/191
f 308/213/28 172/189/169 187/209/189
f 165/202/182 181/214/192 166/190/170
f 158/187/168 174/215/193 159/191/171
f 166/190/170 182/216/194 167/192/172
f 159/191/171 175/217/195 160/193/173
f 168/194/174 182/216/194 183/218/196
f 160/193/173 176/203/183 161/195/175
f 168/194/174 184/219/197 169/196/176
f 180/210/190 196/220/198 181/214/192
f 174/215/193 188/221/199 189/222/200
f 181/214/192 197/223/201 182/216/194
f 175/217/195 189/222/200 190/224/202
f 183/218/196 197/223/201 198/225/203
f 175/217/195 191/226/204 176/203/183
f 183/218/196 199/227/205 184/219/197
f 177/204/184 191/226/204 192/228/206
f 185/205/185 199/227/205 200/229/207
f 177/204/184 193/230/208 178/206/186
f 185/205/185 201/231/209 186/207/187
f 179/208/188 193/230/208 194/232/210
f 186/207/187 202/233/211 187/209/189
f 180/210/190 194/232/210 195/234/212
f 173/212/191 82/235/26 188/221/199
f 308/236/28 187/209/189 202/233/211
f 200/229/207 214/237/213 215/238/214
f 192/228/206 208/239/215 193/230/208
f 200/229/207 216/240/216 201/231/209
f 194/232/210 208/239/215 209/241/217
f 201/231/209 217/242/218 202/233/211
f 195/234/212 209/241/217 210/243/219
f 188/221/199 82/244/26 203/245/220
f 308/246/28 202/233/211 217/242/218
f 195/234/212 211/247/221 196/220/198
f 188/221/199 204/248/222 189/222/200
f 196/220/198 212/249/223 197/223/201
f 189/222/200 205/250/224 190/224/202
f 198/225/203 212/249/223 213/251/225
f 190/224/202 206/252/226 191/226/204
f 198/225/203 214/237/213 199/227/205
f 192/228/206 206/252/226 207/253/227
f 203/245/220 219/254/228 204/248/222
f 211/247/221 227/255/229 212/249/223
f 204/248/222 220/256/230 205/250/224
f 213/251/225 227/255/229 228/257/231
f 205/250/224 221/258/232 206/252/226
f 213/251/225 229/259/233 214/237/213
f 207/253/227 221/258/232 222/260/234
f 215/238/214 229/259/233 230/261/235
f 207/253/227 223/262/236 208/239/215
f 215/238/214 231/263/237 216/240/216
f 209/241/217 223/262/236 224/264/238
f 216/240/216 232/265/239 217/242/218
f 210/243/219 224/264/238 225/266/240
f 203/245/220 82/267/26 218/268/241
f 308/269/28 217/242/218 232/265/239
f 210/243/219 226/270/242 211/247/221
f 222/260/234 238/271/243 223/262/236
f 230/261/235 246/272/244 231/263/237
f 224/264/238 238/271/243 239/273/245
f 232/265/239 246/272/244 247/274/246
f 225/266/240 239/273/245 240/275/247
f 218/268/241 82/276/26 233/277/248
f 308/278/28 232/265/239 247/274/246
f 225/266/240 241/279/249 226/270/242
f 218/268/241 234/280/250 219/254/228
f 226/270/242 242/281/251 227/255/229
f 220/256/230 234/280/250 235/282/252
f 228/257/231 242/281/251 243/283/253
f 220/256/230 236/284/254 221/258/232
f 228/257/231 244/285/255 229/259/233
f 222/260/234 236/284/254 237/286/256
f 230/261/235 244/285/255 245/287/257
f 241/279/249 257/288/258 242/281/251
f 234/280/250 250/289/259 235/282/252
f 243/283/253 257/288/258 258/290/260
f 235/282/252 251/291/261 236/284/254
f 243/283/253 259/292/262 244/285/255
f 237/286/256 251/291/261 252/293/263
f 245/287/257 259/292/262 260/294/264
f 237/286/256 253/295/265 238/271/243
f 245/287/257 261/296/266 246/272/244
f 239/273/245 253/295/265 254/297/267
f 246/272/244 262/298/268 247/274/246
f 240/275/247 254/297/267 255/299/269
f 233/277/248 82/300/26 248/301/270
f 308/302/28 247/274/246 262/298/268
f 240/275/247 256/303/271 241/279/249
f 233/277/248 249/304/272 234/280/250
f 260/294/264 276/305/273 261/296/266
f 254/297/267 268/306/274 269/307/275
f 261/296/266 277/308/276 262/298/268
f 255/299/269 269/307/275 270/309/277
f 248/301/270 82/310/26 263/311/278
f 308/312/28 262/298/268 277/308/276
f 255/299/269 271/313/279 256/303/271
f 249/304/272 263/311/278 264/314/280
f 256/303/271 272/315/281 257/288/258
f 249/304/272 265/316/282 250/289/259
f 258/290/260 272/315/281 273/317/283
f 250/289/259 266/318/284 251/291/261
f 258/290/260 274/319/285 259/292/262
f 252/293/263 266/318/284 267/320/286
f 260/294/264 274/319/285 275/321/287
f 252/293/263 268/306/274 253/295/265
f 273/317/283 287/322/288 288/323/289
f 265/316/282 281/324/290 266/318/284
f 273/317/283 289/325/291 274/319/285
f 267/320/286 281/324/290 282/326/292
f 275/321/287 289/325/291 290/327/293
f 267/320/286 283/328/294 268/306/274
f 275/321/287 291/329/295 276/305/273
f 269/307/275 283/328/294 284/330/296
f 277/308/276 291/329/295 292/331/297
f 270/309/277 284/330/296 285/332/298
f 263/311/278 82/333/26 278/334/299
f 308/335/28 277/308/276 292/331/297
f 270/309/277 286/336/300 271/313/279
f 264/314/280 278/334/299 279/337/301
f 271/313/279 287/322/288 272/315/281
f 264/314/280 280/338/302 265/316/282
f 292/331/297 306/339/303 307/340/304
f 285/332/298 299/341/305 300/342/306
f 278/334/299 82/343/26 293/344/307
f 308/345/28 292/331/297 307/340/304
f 285/332/298 301/346/308 286/336/300
f 278/334/299 294/347/309 279/337/301
f 286/336/300 302/348/310 287/322/288
f 279/337/301 295/349/311 280/338/302
f 288/323/289 302/348/310 303/350/312
f 280/338/302 296/351/313 281/324/290
f 288/323/289 304/352/314 289/325/291
f 282/326/292 296/351/313 297/353/315
f 290/327/293 304/352/314 305/354/316
f 282/326/292 298/355/317 283/328/294
f 290/327/293 306/339/303 291/329/295
f 284/330/296 298/355/317 299/341/305
f 295/349/311 312/356/318 296/351/313
f 303/350/312 320/357/319 304/352/314
f 297/353/315 312/356/318 313/358/320
f 305/354/316 320/357/319 321/359/321
f 297/353/315 314/360/322 298/355/317
f 305/354/316 322/361/323 306/339/303
f 299/341/305 314/360/322 315/362/324
f 306/339/303 323/363/325 307/340/304
f 300/342/306 315/362/324 316/364/326
f 293/344/307 82/365/26 309/366/327
f 308/367/28 307/340/304 323/363/325
f 300/342/306 317/368/328 301/346/308
f 293/344/307 310/369/329 294/347/309
f 301/346/308 318/370/330 302/348/310
f 294/347/309 311/371/331 295/349/311
f 303/350/312 318/370/330 319/372/332
f 316/364/326 330/373/333 331/374/334
f 309/366/327 82/375/26 324/376/335
f 308/377/28 323/363/325 338/378/336
f 316/364/326 332/379/337 317/368/328
f 309/366/327 325/380/338 310/369/329
f 317/368/328 333/381/339 318/370/330
f 310/369/329 326/382/340 311/371/331
f 319/372/332 333/381/339 334/383/341
f 311/371/331 327/384/342 312/356/318
f 319/372/332 335/385/343 320/357/319
f 312/356/318 328/386/344 313/358/320
f 321/359/321 335/385/343 336/387/345
f 313/358/320 329/388/346 314/360/322
f 321/359/321 337/389/347 322/361/323
f 315/362/324 329/388/346 330/373/333
f 322/361/323 338/378/336 323/363/325
f 334/383/341 350/390/348 335/385/343
f 328/386/344 342/391/349 343/392/350
f 336/387/345 350/390/348 351/393/351
f 328/386/344 344/394/352 329/388/346
f 336/387/345 352/395/353 337/389/347
f 330/373/333 344/394/352 345/396/354
f 337/389/347 353/397/355 338/378/336
f 331/374/334 345/396/354 346/398/356
f 324/376/335 82/399/26 339/400/357
f 308/401/28 338/378/336 353/397/355
f 331/374/334 347/402/358 332/379/337
f 324/376/335 340/403/359 325/380/338
f 332/379/337 348/404/360 333/381/339
f 325/380/338 341/405/361 326/382/340
f 334/383/341 348/404/360 349/406/362
f 326/382/340 342/391/349 327/384/342
f 339/400/357 82/407/26 354/408/363
f 308/409/28 353/397/355 368/410/364
f 346/398/356 362/411/365 347/402/358
f 339/400/357 355/412/366 340/403/359
f 347/402/358 363/413/367 348/404/360
f 341/405/361 355/412/366 356/414/368
f 349/406/362 363/413/367 364/415/369
f 341/405/361 357/416/370 342/391/349
f 349/406/362 365/417/371 350/390/348
f 343/392/350 357/416/370 358/418/372
f 351/393/351 365/417/371 366/419/373
f 343/392/350 359/420/374 344/394/352
f 351/393/351 367/421/375 352/395/353
f 345/396/354 359/420/374 360/422/376
f 352/395/353 368/410/364 353/397/355
f 346/398/356 360/422/376 361/423/377
f 358/424/372 372/425/378 373/426/379
f 366/427/373 380/428/380 381/429/381
f 358/424/372 374/430/382 359/431/374
f 366/427/373 382/432/383 367/433/375
f 360/434/376 374/430/382 375/435/384
f 367/433/375 383/436/385 368/437/364
f 361/438/377 375/435/384 376/439/386
f 354/440/363 82/441/26 369/442/387
f 308/443/28 368/437/364 383/436/385
f 361/438/377 377/444/388 362/445/365
f 354/440/363 370/446/389 355/447/366
f 362/445/365 378/448/390 363/449/367
f 356/450/368 370/446/389 371/451/391
f 364/452/369 378/448/390 379/453/392
f 356/450/368 372/425/378 357/454/370
f 364/452/369 380/428/380 365/455/371
f 376/439/386 392/456/393 377/444/388
f 369/442/387 385/457/394 370/446/389
f 377/444/388 393/458/395 378/448/390
f 371/451/391 385/457/394 386/459/396
f 379/453/392 393/458/395 394/460/397
f 371/451/391 387/461/398 372/425/378
f 379/453/392 395/462/399 380/428/380
f 373/426/379 387/461/398 388/463/400
f 381/429/381 395/462/399 396/464/401
f 373/426/379 389/465/402 374/430/382
f 381/429/381 397/466/403 382/432/383
f 375/435/384 389/465/402 390/467/404
f 382/432/383 398/468/405 383/436/385
f 376/439/386 390/467/404 391/469/406
f 369/442/387 82/470/26 384/471/407
f 308/472/28 383/436/385 398/468/405
f 396/464/401 410/473/408 411/474/409
f 388/463/400 404/475/410 389/465/402
f 397/466/403 411/474/409 412/476/411
f 390/467/404 404/475/410 405/477/412
f 397/466/403 413/478/413 398/468/405
f 391/469/406 405/477/412 406/479/414
f 384/471/407 82/480/26 399/481/415
f 308/482/28 398/468/405 413/478/413
f 391/469/406 407/483/416 392/456/393
f 385/457/394 399/481/415 400/484/417
f 392/456/393 408/485/418 393/458/395
f 385/457/394 401/486/419 386/459/396
f 394/460/397 408/485/418 409/487/420
f 386/459/396 402/488/421 387/461/398
f 394/460/397 410/473/408 395/462/399
f 388/463/400 402/488/421 403/489/422
f 407/483/416 423/490/423 408/485/418
f 401/486/419 415/491/424 416/492/425
f 409/487/420 423/490/423 424/493/426
f 401/486/419 417/494/427 402/488/421
f 409/487/420 425/495/428 410/473/408
f 403/489/422 417/494/427 418/496/429
f 411/474/409 425/495/428 426/497/430
f 403/489/422 419/498/431 404/475/410
f 411/474/409 427/499/432 412/476/411
f 405/477/412 419/498/431 420/500/433
f 412/476/411 428/501/434 413/478/413
f 406/479/414 420/500/433 421/502/435
f 399/481/415 82/503/26 414/504/436
f 308/505/28 413/478/413 428/501/434
f 406/479/414 422/506/437 407/483/416
f 399/481/415 415/491/424 400/484/417
f 426/497/430 442/507/438 427/499/432
f 420/500/433 434/508/439 435/509/440
f 427/499/432 443/510/441 428/501/434
f 421/502/435 435/509/440 436/511/442
f 414/504/436 82/512/26 429/513/443
f 308/514/28 428/501/434 443/510/441
f 421/502/435 437/515/444 422/506/437
f 414/504/436 430/516/445 415/491/424
f 422/506/437 438/517/446 423/490/423
f 416/492/425 430/516/445 431/518/447
f 424/493/426 438/517/446 439/519/448
f 416/492/425 432/520/449 417/494/427
f 424/493/426 440/521/450 425/495/428
f 418/496/429 432/520/449 433/522/451
f 426/497/430 440/521/450 441/523/452
f 418/496/429 434/508/439 419/498/431
f 430/516/445 446/524/453 431/518/447
f 439/519/448 453/525/454 454/526/455
f 431/518/447 447/527/456 432/520/449
f 439/519/448 455/528/457 440/521/450
f 433/522/451 447/527/456 448/529/458
f 441/523/452 455/528/457 456/530/459
f 433/522/451 449/531/460 434/508/439
f 441/523/452 457/532/461 442/507/438
f 435/509/440 449/531/460 450/533/462
f 442/507/438 458/534/463 443/510/441
f 436/511/442 450/533/462 451/535/464
f 429/513/443 82/536/26 444/537/465
f 308/538/28 443/510/441 458/534/463
f 436/511/442 452/539/466 437/515/444
f 430/516/445 444/537/465 445/540/467
f 437/515/444 453/525/454 438/517/446
f 450/533/462 464/541/468 465/542/469
f 458/534/463 472/543/470 473/544/471
f 451/535/464 465/542/469 466/545/472
f 444/537/465 82/546/26 459/547/473
f 308/548/28 458/534/463 473/544/471
f 451/535/464 467/549/474 452/539/466
f 444/537/465 460/550/475 445/540/467
f 452/539/466 468/551/476 453/525/454
f 446/524/453 460/550/475 461/552/477
f 454/526/455 468/551/476 469/553/478
f 446/524/453 462/554/479 447/527/456
f 454/526/455 470/555/480 455/528/457
f 448/529/458 462/554/479 463/556/481
f 456/530/459 470/555/480 471/557/482
f 448/529/458 464/541/468 449/531/460
f 456/530/459 472/543/470 457/532/461
f 468/551/476 6/6/6 469/553/478
f 462/554/479 1/1/1 476/7/7
f 469/553/478 479/10/10 470/555/480
f 463/556/481 476/7/7 2/11/11
f 471/557/482 479/10/10 480/14/14
f 464/541/468 2/11/11 477/15/15
f 471/557/482 481/18/18 472/543/470
f 465/542/469 477/15/15 3/19/19
f 472/543/470 482/22/22 473/544/471
f 466/545/472 3/19/19 4/24/24
f 459/547/473 82/558/26 474/25/25
f 308/559/28 473/544/471 482/22/22
f 466/545/472 5/30/30 467/549/474
f 460/550/475 474/25/25 475/31/31
f 467/549/474 478/4/4 468/551/476
f 461/552/477 475/31/31 1/1/1
f 1/1/1 475/31/31 8/2/2
f 478/4/4 16/32/32 17/5/5
f 476/7/7 1/1/1 9/3/3
f 6/6/6 17/5/5 18/9/9
f 2/11/11 476/7/7 10/8/8
f 479/10/10 18/9/9 19/13/13
f 477/15/15 2/11/11 11/12/12
f 480/14/14 19/13/13 20/17/17
f 3/19/19 477/15/15 12/16/16
f 481/18/18 20/17/17 21/21/21
f 3/19/19 13/20/20 14/23/23
f 4/24/24 14/23/23 15/29/29
f 475/31/31 474/25/25 7/27/27
f 5/30/30 15/29/29 16/32/32
f 7/27/27 22/47/46 23/33/33
f 15/29/29 30/49/47 31/34/34
f 8/2/2 23/33/33 24/35/35
f 16/32/32 31/34/34 32/36/36
f 9/3/3 24/35/35 25/37/37
f 17/5/5 32/36/36 33/38/38
f 10/8/8 25/37/37 26/39/39
f 19/13/13 18/9/9 33/38/38
f 11/12/12 26/39/39 27/41/41
f 20/17/17 19/13/13 34/40/40
f 13/20/20 12/16/16 27/41/41
f 20/17/17 35/42/42 36/44/44
f 13/20/20 28/43/43 29/45/45
f 14/23/23 29/45/45 30/49/47
f 26/39/39 41/65/61 42/50/48
f 34/40/40 49/66/62 50/51/49
f 27/41/41 42/50/48 43/52/50
f 35/42/42 50/51/49 51/53/51
f 28/43/43 43/52/50 44/54/52
f 30/49/47 29/45/45 44/54/52
f 22/47/46 37/56/53 38/59/55
f 30/49/47 45/58/54 46/60/56
f 23/33/33 38/59/55 39/61/57
f 32/36/36 31/34/34 46/60/56
f 24/35/35 39/61/57 40/63/59
f 33/38/38 32/36/36 47/62/58
f 25/37/37 40/63/59 41/65/61
f 34/40/40 33/38/38 48/64/60
f 45/58/54 60/82/76 61/67/63
f 38/59/55 53/83/77 54/68/64
f 47/62/58 46/60/56 61/67/63
f 39/61/57 54/68/64 55/70/66
f 47/62/58 62/69/65 63/71/67
f 40/63/59 55/70/66 56/72/68
f 48/64/60 63/71/67 64/73/69
f 41/65/61 56/72/68 57/74/70
f 49/66/62 64/73/69 65/75/71
f 43/52/50 42/50/48 57/74/70
f 50/51/49 65/75/71 66/77/73
f 44/54/52 43/52/50 58/76/72
f 44/54/52 59/78/74 60/82/76
f 37/56/53 52/80/75 53/83/77
f 65/75/71 64/73/69 79/84/78
f 58/76/72 57/74/70 72/86/80
f 65/75/71 80/85/79 81/88/82
f 59/78/74 58/76/72 73/87/81
f 59/78/74 74/89/83 75/93/85
f 52/80/75 67/91/84 68/94/86
f 60/82/76 75/93/85 76/95/87
f 53/83/77 68/94/86 69/96/88
f 62/69/65 61/67/63 76/95/87
f 54/68/64 69/96/88 70/98/90
f 62/69/65 77/97/89 78/99/91
f 56/72/68 55/70/66 70/98/90
f 63/71/67 78/99/91 79/84/78
f 56/72/68 71/100/92 72/86/80
f 68/94/86 84/117/107 85/101/93
f 77/97/89 76/95/87 92/102/94
f 69/96/88 85/101/93 86/104/96
f 77/97/89 93/103/95 94/105/97
f 71/100/92 70/98/90 86/104/96
f 78/99/91 94/105/97 95/107/99
f 71/100/92 87/106/98 88/108/100
f 79/84/78 95/107/99 96/109/101
f 73/87/81 72/86/80 88/108/100
f 81/88/82 80/85/79 96/109/101
f 74/89/83 73/87/81 89/110/102
f 74/89/83 90/112/104 91/116/106
f 67/91/84 83/114/105 84/117/107
f 75/93/85 91/116/106 92/102/94
f 89/110/102 88/108/100 103/118/108
f 96/109/101 111/134/122 112/120/110
f 90/112/104 89/110/102 104/119/109
f 90/112/104 105/121/111 106/125/113
f 84/117/107 83/114/105 98/123/112
f 91/116/106 106/125/113 107/127/115
f 84/117/107 99/126/114 100/128/116
f 93/103/95 92/102/94 107/127/115
f 85/101/93 100/128/116 101/130/118
f 93/103/95 108/129/117 109/131/119
f 87/106/98 86/104/96 101/130/118
f 95/107/99 94/105/97 109/131/119
f 87/106/98 102/132/120 103/118/108
f 96/109/101 95/107/99 110/133/121
f 108/129/117 107/127/115 122/135/123
f 100/128/116 115/151/137 116/137/125
f 108/129/117 123/136/124 124/138/126
f 102/132/120 101/130/118 116/137/125
f 110/133/121 109/131/119 124/138/126
f 102/132/120 117/139/127 118/141/129
f 110/133/121 125/140/128 126/142/130
f 104/119/109 103/118/108 118/141/129
f 111/134/122 126/142/130 127/144/132
f 105/121/111 104/119/109 119/143/131
f 105/121/111 120/145/133 121/149/135
f 99/126/114 98/123/112 113/147/134
f 106/125/113 121/149/135 122/135/123
f 99/126/114 114/150/136 115/151/137
f 126/142/130 141/168/152 142/152/138
f 120/145/133 119/143/131 134/153/139
f 120/145/133 135/154/140 136/158/142
f 113/147/134 128/156/141 129/159/143
f 121/149/135 136/158/142 137/160/144
f 114/150/136 129/159/143 130/161/145
f 123/136/124 122/135/123 137/160/144
f 115/151/137 130/161/145 131/163/147
f 123/136/124 138/162/146 139/164/148
f 117/139/127 116/137/125 131/163/147
f 125/140/128 124/138/126 139/164/148
f 117/139/127 132/165/149 133/167/151
f 125/140/128 140/166/150 141/168/152
f 119/143/131 118/141/129 133/167/151
f 138/162/146 153/185/167 154/169/153
f 132/165/149 131/163/147 146/170/154
f 140/166/150 139/164/148 154/169/153
f 132/165/149 147/171/155 148/173/157
f 140/166/150 155/172/156 156/174/158
f 134/153/139 133/167/151 148/173/157
f 142/152/138 141/168/152 156/174/158
f 135/154/140 134/153/139 149/175/159
f 135/154/140 150/177/161 151/181/163
f 128/156/141 143/179/162 144/182/164
f 136/158/142 151/181/163 152/183/165
f 130/161/145 129/159/143 144/182/164
f 138/162/146 137/160/144 152/183/165
f 130/161/145 145/184/166 146/170/154
f 150/177/161 165/202/182 166/190/170
f 143/179/162 158/187/168 159/191/171
f 151/181/163 166/190/170 167/192/172
f 145/184/166 144/182/164 159/191/171
f 153/185/167 152/183/165 167/192/172
f 145/184/166 160/193/173 161/195/175
f 153/185/167 168/194/174 169/196/176
f 147/171/155 146/170/154 161/195/175
f 155/172/156 154/169/153 169/196/176
f 147/171/155 162/197/177 163/199/179
f 155/172/156 170/198/178 171/200/180
f 149/175/159 148/173/157 163/199/179
f 156/174/158 171/200/180 172/189/169
f 150/177/161 149/175/159 164/201/181
f 162/197/177 161/195/175 176/203/183
f 169/196/176 184/219/197 185/205/185
f 162/197/177 177/204/184 178/206/186
f 171/200/180 170/198/178 185/205/185
f 164/201/181 163/199/179 178/206/186
f 172/189/169 171/200/180 186/207/187
f 165/202/182 164/201/181 179/208/188
f 165/202/182 180/210/190 181/214/192
f 158/187/168 173/212/191 174/215/193
f 166/190/170 181/214/192 182/216/194
f 159/191/171 174/215/193 175/217/195
f 168/194/174 167/192/172 182/216/194
f 160/193/173 175/217/195 176/203/183
f 168/194/174 183/218/196 184/219/197
f 180/210/190 195/234/212 196/220/198
f 174/215/193 173/212/191 188/221/199
f 181/214/192 196/220/198 197/223/201
f 175/217/195 174/215/193 189/222/200
f 183/218/196 182/216/194 197/223/201
f 175/217/195 190/224/202 191/226/204
f 183/218/196 198/225/203 199/227/205
f 177/204/184 176/203/183 191/226/204
f 185/205/185 184/219/197 199/227/205
f 177/204/184 192/228/206 193/230/208
f 185/205/185 200/229/207 201/231/209
f 179/208/188 178/206/186 193/230/208
f 186/207/187 201/231/209 202/233/211
f 180/210/190 179/208/188 194/232/210
f 200/229/207 199/227/205 214/237/213
f 192/228/206 207/253/227 208/239/215
f 200/229/207 215/238/214 216/240/216
f 194/232/210 193/230/208 208/239/215
f 201/231/209 216/240/216 217/242/218
f 195/234/212 194/232/210 209/241/217
f 195/234/212 210/243/219 211/247/221
f 188/221/199 203/245/220 204/248/222
f 196/220/198 211/247/221 212/249/223
f 189/222/200 204/248/222 205/250/224
f 198/225/203 197/223/201 212/249/223
f 190/224/202 205/250/224 206/252/226
f 198/225/203 213/251/225 214/237/213
f 192/228/206 191/226/204 206/252/226
f 203/245/220 218/268/241 219/254/228
f 211/247/221 226/270/242 227/255/229
f 204/248/222 219/254/228 220/256/230
f 213/251/225 212/249/223 227/255/229
f 205/250/224 220/256/230 221/258/232
f 213/251/225 228/257/231 229/259/233
f 207/253/227 206/252/226 221/258/232
f 215/238/214 214/237/213 229/259/233
f 207/253/227 222/260/234 223/262/236
f 215/238/214 230/261/235 231/263/237
f 209/241/217 208/239/215 223/262/236
f 216/240/216 231/263/237 232/265/239
f 210/243/219 209/241/217 224/264/238
f 210/243/219 225/266/240 226/270/242
f 222/260/234 237/286/256 238/271/243
f 230/261/235 245/287/257 246/272/244
f 224/264/238 223/262/236 238/271/243
f 232/265/239 231/263/237 246/272/244
f 225/266/240 224/264/238 239/273/245
f 225/266/240 240/275/247 241/279/249
f 218/268/241 233/277/248 234/280/250
f 226/270/242 241/279/249 242/281/251
f 220/256/230 219/254/228 234/280/250
f 228/257/231 227/255/229 242/281/251
f 220/256/230 235/282/252 236/284/254
f 228/257/231 243/283/253 244/285/255
f 222/260/234 221/258/232 236/284/254
f 230/261/235 229/259/233 244/285/255
f 241/279/249 256/303/271 257/288/258
f 234/280/250 249/304/272 250/289/259
f 243/283/253 242/281/251 257/288/258
f 235/282/252 250/289/259 251/291/261
f 243/283/253 258/290/260 259/292/262
f 237/286/256 236/284/254 251/291/261
f 245/287/257 244/285/255 259/292/262
f 237/286/256 252/293/263 253/295/265
f 245/287/257 260/294/264 261/296/266
f 239/273/245 238/271/243 253/295/265
f 246/272/244 261/296/266 262/298/268
f 240/275/247 239/273/245 254/297/267
f 240/275/247 255/299/269 256/303/271
f 233/277/248 248/301/270 249/304/272
f 260/294/264 275/321/287 276/305/273
f 254/297/267 253/295/265 268/306/274
f 261/296/266 276/305/273 277/308/276
f 255/299/269 254/297/267 269/307/275
f 255/299/269 270/309/277 271/313/279
f 249/304/272 248/301/270 263/311/278
f 256/303/271 271/313/279 272/315/281
f 249/304/272 264/314/280 265/316/282
f 258/290/260 257/288/258 272/315/281
f 250/289/259 265/316/282 266/318/284
f 258/290/260 273/317/283 274/319/285
f 252/293/263 251/291/261 266/318/284
f 260/294/264 259/292/262 274/319/285
f 252/293/263 267/320/286 268/306/274
f 273/317/283 272/315/281 287/322/288
f 265/316/282 280/338/302 281/324/290
f 273/317/283 288/323/289 289/325/291
f 267/320/286 266/318/284 281/324/290
f 275/321/287 274/319/285 289/325/291
f 267/320/286 282/326/292 283/328/294
f 275/321/287 290/327/293 291/329/295
f 269/307/275 268/306/274 283/328/294
f 277/308/276 276/305/273 291/329/295
f 270/309/277 269/307/275 284/330/296
f 270/309/277 285/332/298 286/336/300
f 264/314/280 263/311/278 278/334/299
f 271/313/279 286/336/300 287/322/288
f 264/314/280 279/337/301 280/338/302
f 292/331/297 291/329/295 306/339/303
f 285/332/298 284/330/296 299/341/305
f 285/332/298 300/342/306 301/346/308
f 278/334/299 293/344/307 294/347/309
f 286/336/300 301/346/308 302/348/310
f 279/337/301 294/347/309 295/349/311
f 288/323/289 287/322/288 302/348/310
f 280/338/302 295/349/311 296/351/313
f 288/323/289 303/350/312 304/352/314
f 282/326/292 281/324/290 296/351/313
f 290/327/293 289/325/291 304/352/314
f 282/326/292 297/353/315 298/355/317
f 290/327/293 305/354/316 306/339/303
f 284/330/296 283/328/294 298/355/317
f 295/349/311 311/371/331 312/356/318
f 303/350/312 319/372/332 320/357/319
f 297/353/315 296/351/313 312/356/318
f 305/354/316 304/352/314 320/357/319
f 297/353/315 313/358/320 314/360/322
f 305/354/316 321/359/321 322/361/323
f 299/341/305 298/355/317 314/360/322
f 306/339/303 322/361/323 323/363/325
f 300/342/306 299/341/305 315/362/324
f 300/342/306 316/364/326 317/368/328
f 293/344/307 309/366/327 310/369/329
f 301/346/308 317/368/328 318/370/330
f 294/347/309 310/369/329 311/371/331
f 303/350/312 302/348/310 318/370/330
f 316/364/326 315/362/324 330/373/333
f 316/364/326 331/374/334 332/379/337
f 309/366/327 324/376/335 325/380/338
f 317/368/328 332/379/337 333/381/339
f 310/369/329 325/380/338 326/382/340
f 319/372/332 318/370/330 333/381/339
f 311/371/331 326/382/340 327/384/342
f 319/372/332 334/383/341 335/385/343
f 312/356/318 327/384/342 328/386/344
f 321/359/321 320/357/319 335/385/343
f 313/358/320 328/386/344 329/388/346
f 321/359/321 336/387/345 337/389/347
f 315/362/324 314/360/322 329/388/346
f 322/361/323 337/389/347 338/378/336
f 334/383/341 349/406/362 350/390/348
f 328/386/344 327/384/342 342/391/349
f 336/387/345 335/385/343 350/390/348
f 328/386/344 343/392/350 344/394/352
f 336/387/345 351/393/351 352/395/353
f 330/373/333 329/388/346 344/394/352
f 337/389/347 352/395/353 353/397/355
f 331/374/334 330/373/333 345/396/354
f 331/374/334 346/398/356 347/402/358
f 324/376/335 339/400/357 340/403/359
f 332/379/337 347/402/358 348/404/360
f 325/380/338 340/403/359 341/405/361
f 334/383/341 333/381/339 348/404/360
f 326/382/340 341/405/361 342/391/349
f 346/398/356 361/423/377 362/411/365
f 339/400/357 354/408/363 355/412/366
f 347/402/358 362/411/365 363/413/367
f 341/405/361 340/403/359 355/412/366
f 349/406/362 348/404/360 363/413/367
f 341/405/361 356/414/368 357/416/370
f 349/406/362 364/415/369 365/417/371
f 343/392/350 342/391/349 357/416/370
f 351/393/351 350/390/348 365/417/371
f 343/392/350 358/418/372 359/420/374
f 351/393/351 366/419/373 367/421/375
f 345/396/354 344/394/352 359/420/374
f 352/395/353 367/421/375 368/410/364
f 346/398/356 345/396/354 360/422/376
f 358/424/372 357/454/370 372/425/378
f 366/427/373 365/455/371 380/428/380
f 358/424/372 373/426/379 374/430/382
f 366/427/373 381/429/381 382/432/383
f 360/434/376 359/431/374 374/430/382
f 367/433/375 382/432/383 383/436/385
f 361/438/377 360/434/376 375/435/384
f 361/438/377 376/439/386 377/444/388
f 354/440/363 369/442/387 370/446/389
f 362/445/365 377/444/388 378/448/390
f 356/450/368 355/447/366 370/446/389
f 364/452/369 363/449/367 378/448/390
f 356/450/368 371/451/391 372/425/378
f 364/452/369 379/453/392 380/428/380
f 376/439/386 391/469/406 392/456/393
f 369/442/387 384/471/407 385/457/394
f 377/444/388 392/456/393 393/458/395
f 371/451/391 370/446/389 385/457/394
f 379/453/392 378/448/390 393/458/395
f 371/451/391 386/459/396 387/461/398
f 379/453/392 394/460/397 395/462/399
f 373/426/379 372/425/378 387/461/398
f 381/429/381 380/428/380 395/462/399
f 373/426/379 388/463/400 389/465/402
f 381/429/381 396/464/401 397/466/403
f 375/435/384 374/430/382 389/465/402
f 382/432/383 397/466/403 398/468/405
f 376/439/386 375/435/384 390/467/404
f 396/464/401 395/462/399 410/473/408
f 388/463/400 403/489/422 404/475/410
f 397/466/403 396/464/401 411/474/409
f 390/467/404 389/465/402 404/475/410
f 397/466/403 412/476/411 413/478/413
f 391/469/406 390/467/404 405/477/412
f 391/469/406 406/479/414 407/483/416
f 385/457/394 384/471/407 399/481/415
f 392/456/393 407/483/416 408/485/418
f 385/457/394 400/484/417 401/486/419
f 394/460/397 393/458/395 408/485/418
f 386/459/396 401/486/419 402/488/421
f 394/460/397 409/487/420 410/473/408
f 388/463/400 387/461/398 402/488/421
f 407/483/416 422/506/437 423/490/423
f 401/486/419 400/484/417 415/491/424
f 409/487/420 408/485/418 423/490/423
f 401/486/419 416/492/425 417/494/427
f 409/487/420 424/493/426 425/495/428
f 403/489/422 402/488/421 417/494/427
f 411/474/409 410/473/408 425/495/428
f 403/489/422 418/496/429 419/498/431
f 411/474/409 426/497/430 427/499/432
f 405/477/412 404/475/410 419/498/431
f 412/476/411 427/499/432 428/501/434
f 406/479/414 405/477/412 420/500/433
f 406/479/414 421/502/435 422/506/437
f 399/481/415 414/504/436 415/491/424
f 426/497/430 441/523/452 442/507/438
f 420/500/433 419/498/431 434/508/439
f 427/499/432 442/507/438 443/510/441
f 421/502/435 420/500/433 435/509/440
f 421/502/435 436/511/442 437/515/444
f 414/504/436 429/513/443 430/516/445
f 422/506/437 437/515/444 438/517/446
f 416/492/425 415/491/424 430/516/445
f 424/493/426 423/490/423 438/517/446
f 416/492/425 431/518/447 432/520/449
f 424/493/426 439/519/448 440/521/450
f 418/496/429 417/494/427 432/520/449
f 426/497/430 425/495/428 440/521/450
f 418/496/429 433/522/451 434/508/439
f 430/516/445 445/540/467 446/524/453
f 439/519/448 438/517/446 453/525/454
f 431/518/447 446/524/453 447/527/456
f 439/519/448 454/526/455 455/528/457
f 433/522/451 432/520/449 447/527/456
f 441/523/452 440/521/450 455/528/457
f 433/522/451 448/529/458 449/531/460
f 441/523/452 456/530/459 457/532/461
f 435/509/440 434/508/439 449/531/460
f 442/507/438 457/532/461 458/534/463
f 436/511/442 435/509/440 450/533/462
f 436/511/442 451/535/464 452/539/466
f 430/516/445 429/513/443 444/537/465
f 437/515/444 452/539/466 453/525/454
f 450/533/462 449/531/460 464/541/468
f 458/534/463 457/532/461 472/543/470
f 451/535/464 450/533/462 465/542/469
f 451/535/464 466/545/472 467/549/474
f 444/537/465 459/547/473 460/550/475
f 452/539/466 467/549/474 468/551/476
f 446/524/453 445/540/467 460/550/475
f 454/526/455 453/525/454 468/551/476
f 446/524/453 461/552/477 462/554/479
f 454/526/455 469/553/478 470/555/480
f 448/529/458 447/527/456 462/554/479
f 456/530/459 455/528/457 470/555/480
f 448/529/458 463/556/481 464/541/468
f 456/530/459 471/557/482 472/543/470
f 468/551/476 478/4/4 6/6/6
f 462/554/479 461/552/477 1/1/1
f 469/553/478 6/6/6 479/10/10
f 463/556/481 462/554/479 476/7/7
f 471/557/482 470/555/480 479/10/10
f 464/541/468 463/556/481 2/11/11
f 471/557/482 480/14/14 481/18/18
f 465/542/469 464/541/468 477/15/15
f 472/543/470 481/18/18 482/22/22
f 466/545/472 465/542/469 3/19/19
f 466/545/472 4/24/24 5/30/30
f 460/550/475 459/547/473 474/25/25
f 467/549/474 5/30/30 478/4/4
f 461/552/477 460/550/475 475/31/31
